<svg xmlns="http://www.w3.org/2000/svg" viewBox="0 0 128 128" width="500" height="500"><ellipse cx="44.775" cy="45.18" fill="#68dbaf" rx="42.775" ry="43.18"/><path fill="none" d="M75.767 75.117l20.006 20.186"/><path fill="#68dbaf" d="M73.347 75.516L76.19 72.7l21.004 21.188-2.842 2.817z"/><g><path fill="#239198" d="M94.567 105.935l17.419 17.584c3.277 3.308 8.451 3.308 11.556 0 3.277-3.308 3.277-8.532 0-11.666l-17.419-17.584c-3.105-3.134-8.279-3.308-11.556 0-3.104 3.134-3.277 8.532 0 11.666z"/></g><g><path fill="#fff" d="M71.596 40.726h-4.172a23.585 23.585 0 00-3.883-9.647l2.909-2.949a3.92 3.92 0 000-5.493 3.794 3.794 0 00-5.418 0l-2.872 2.912a22.583 22.583 0 00-9.552-4.062V17.42c0-2.145-1.716-3.884-3.832-3.884s-3.832 1.739-3.832 3.884v4.067a22.578 22.578 0 00-9.552 4.062l-2.872-2.912c-1.497-1.517-3.921-1.517-5.418 0s-1.497 3.975 0 5.493l2.909 2.949a23.585 23.585 0 00-3.883 9.647h-4.172c-2.116 0-3.832 1.739-3.832 3.884s1.716 3.884 3.832 3.884h4.172a23.585 23.585 0 003.883 9.647L23.1 61.09a3.92 3.92 0 000 5.493 3.791 3.791 0 005.418 0l2.872-2.912a22.596 22.596 0 009.552 4.062V71.8c0 2.145 1.716 3.884 3.832 3.884s3.832-1.739 3.832-3.884v-4.068a22.578 22.578 0 009.552-4.062l2.872 2.912a3.791 3.791 0 005.418 0 3.92 3.92 0 000-5.493l-2.909-2.949a23.585 23.585 0 003.883-9.647h4.172c2.116 0 3.832-1.739 3.832-3.884.002-2.144-1.714-3.883-3.83-3.883z"/><ellipse cx="44.775" cy="44.61" fill="#239198" rx="11.495" ry="11.653"/></g><g><path fill="#d94635" d="M109.218 27.091l3.88 2.122-3.88 2.121-2.121 3.879-2.122-3.879-3.88-2.121 3.88-2.122 2.122-3.878z"/><path fill="#239198" d="M32.539 105.505l3.879 2.122-3.879 2.121-2.122 3.879-2.122-3.879-3.88-2.121 3.88-2.122 2.122-3.878z"/></g></svg>