<svg xmlns="http://www.w3.org/2000/svg" viewBox="0 0 64 64" width="500" height="500"><path fill="#3d9ae2" d="M57 19v34H7V19a4.01 4.01 0 014-4h42a4.009 4.009 0 014 4z"/><path fill="#1e81ce" d="M57 19v4h-5l-5 4v-4h-2a2.006 2.006 0 01-2-2v-6h10a4.009 4.009 0 014 4zm-18-4v22a2.006 2.006 0 01-2 2H7V19a4.01 4.01 0 014-4z"/><path fill="#acabb1" d="M57 53H3v4a2.006 2.006 0 002 2h54a2.006 2.006 0 002-2v-4z"/><path fill="#5aaae7" d="M37 11v24a2.006 2.006 0 01-2 2H5a2.006 2.006 0 01-2-2V11z"/><path fill="#ffde55" d="M59 3H43a2.006 2.006 0 00-2 2v14a2.006 2.006 0 002 2h2v4l5-4h9a2.006 2.006 0 002-2V5a2.006 2.006 0 00-2-2z"/><path fill="#00b39d" d="M40 48.9V53h-9l-1.82-8.18L30 44l3 1 .7-2.8 2.74 1.22A6 6 0 0140 48.9z"/><path fill="#898890" d="M37 53v2a1 1 0 01-1 1h-8a1 1 0 01-1-1v-2h10z"/><path fill="#ff5023" d="M37 7v4H3V7a2.006 2.006 0 012-2h30a2.006 2.006 0 012 2z"/><path fill="#00b39d" d="M33.7 42.2L33 45l-3-1-1-2 2-1 2.7 1.2z"/><path fill="#ffc477" d="M31 38.32V41l-2 1h-2l-2-1v-2.68a6.958 6.958 0 006 0z"/><path fill="#ff5023" d="M29.18 44.82L31 53h-6l1.82-8.18L28 46l1.18-1.18z"/><path fill="#ed1c24" d="M29 42l1 2-.82.82L28 46l-1.18-1.18L26 44l1-2h2z"/><path fill="#00b39d" d="M27 42l-1 2-3 1-.7-2.8L25 41l2 1z"/><path fill="#00b39d" d="M26.82 44.82L25 53h-9v-4.1a6 6 0 013.56-5.48l2.74-1.22.7 2.8 3-1z"/><path fill="#ff9811" d="M7.54 17H7v6h6v-6H7.54z"/><path fill="#ffb655" d="M31 37.32v2a6.958 6.958 0 01-6 0v-2a6.958 6.958 0 006 0z"/><circle cx="20" cy="30" r="3" fill="#ffb655"/><circle cx="36" cy="30" r="3" fill="#ffb655"/><path fill="#57565c" d="M37 23v3l-1 1-1 1h-.56a2.009 2.009 0 01-1.9-1.37L32 25l-1.87 1.4a7.982 7.982 0 01-4.8 1.6H21l-1-1-2-2 1-2-2-4h16a4 4 0 014 4z"/><path fill="#ffc477" d="M34.44 28a2.009 2.009 0 01-1.9-1.37L32 25l-1.87 1.4a7.982 7.982 0 01-4.8 1.6H21v4a7 7 0 0014 0v-4z"/><path d="M6 7h2v2H6zM10 7h2v2h-2zM14 7h2v2h-2zM13 16H7a1 1 0 00-1 1v6a1 1 0 001 1h6a1 1 0 001-1v-6a1 1 0 00-1-1zm-1 6H8v-4h4zM6 26h8v2H6zM6 30h8v2H6zM24 30h2v2h-2zM30 30h2v2h-2z"/><path d="M59 22a3 3 0 003-3V5a3 3 0 00-3-3H43a3 3 0 00-3 3v9h-2V7a3 3 0 00-3-3H5a3 3 0 00-3 3v28a3 3 0 003 3h1v14H3a1 1 0 00-1 1v4a3 3 0 003 3h54a3 3 0 003-3v-4a1 1 0 00-1-1h-3V22zM42 5a1 1 0 011-1h16a1 1 0 011 1v14a1 1 0 01-1 1h-9a1 1 0 00-.625.219L46 22.919V21a1 1 0 00-1-1h-2a1 1 0 01-1-1zM5 6h30a1 1 0 011 1v3H4V7a1 1 0 011-1zm55 51a1 1 0 01-1 1H5a1 1 0 01-1-1v-3h22v1a2 2 0 002 2h8a2 2 0 002-2v-1h22zM19.624 28.038l.376.376V32a2 2 0 01-.376-3.962zM36 28.414l.376-.376A2 2 0 0136 32zm0-2.828L34.586 27h-.145a1 1 0 01-.948-.684l-.544-1.632a1 1 0 00-.651-.638A.985.985 0 0032 24a1 1 0 00-.6.2l-1.865 1.4a7.051 7.051 0 01-4.2 1.4h-3.921l-2.2-2.2.678-1.356a1 1 0 000-.894L18.618 20H33a3 3 0 013 3zM22 29h3.333a9.057 9.057 0 005.4-1.8l.756-.567.106.316A2.994 2.994 0 0034 28.965V32a4.762 4.762 0 01-.035.614 6 6 0 01-8.543 4.8 5.853 5.853 0 01-1.665-1.171 6 6 0 01-1.726-3.664A4.588 4.588 0 0122 32zm17 23h-7.2l-1.525-6.854 2.407.8A.983.983 0 0033 46a1 1 0 00.97-.758l.411-1.643 1.653.735A5 5 0 0139 48.9zm-11 2h8v1h-8zm0-14a7.921 7.921 0 002-.262v.644L28.764 41h-1.528L26 40.382v-.644A7.933 7.933 0 0028 40zm-.783 3.8l.4-.8h.764l.4.8-.781.786zm.191 2.981a.919.919 0 001.184 0L29.753 52h-3.506zm4.884-3.074l-1.582-.527-.368-.736.683-.341 1.5.668zm-7.317-1.6l.683.341-.368.736-1.582.527-.234-.936zM21.619 43.6l.411 1.643A1 1 0 0023 46a.983.983 0 00.316-.052l2.407-.8L24.2 52H17v-3.1a5 5 0 012.966-4.566zM56 52H41v-3.1a7 7 0 00-4.153-6.394L32 40.351v-1.443a7.976 7.976 0 003.747-4.932c.085.006.168.024.253.024a3.986 3.986 0 001.859-7.52A.982.982 0 0038 26v-3a5.006 5.006 0 00-5-5H17a1 1 0 00-.895 1.447L17.882 23l-.777 1.553a1 1 0 00.188 1.154l.8.8A3.986 3.986 0 0020 34c.086 0 .169-.019.255-.024a7.987 7.987 0 002.089 3.682A7.839 7.839 0 0024 38.893v1.458l-4.847 2.155A7 7 0 0015 48.9V52H8V38h11v-2H5a1 1 0 01-1-1V12h32v5h2v-1h2v3a3 3 0 003 3h1v3a1 1 0 001.625.781L50.351 22H56z"/><path d="M45 7h2v2h-2zM49 7h8v2h-8zM45 11h12v2H45zM45 15h12v2H45zM44 30h8v2h-8zM44 34h8v2h-8zM44 38h8v2h-8zM44 42h8v2h-8z"/></svg>