<svg xmlns="http://www.w3.org/2000/svg" viewBox="0 0 4680 3120" enable-background="new 0 0 4680 3120" width="500" height="500"><g><g><g><g><g><g><path fill="#daebff" d="M2918.598 1949.797h-4.975v-37.663l145.675-139.01h283.997l81.381-81.175h229.658l9.873 9.135-3.449 3.442-8.435-7.802h-225.529l-81.381 81.175h-284.065l-142.75 136.221z"/></g><g><path fill="#daebff" d="M2864.017 1945.022h-39.913v-4.775h37.877l197.323-186.223h283.991l81.381-81.174h717.813v4.775h-715.695l-81.381 81.174H3061.34z"/></g><g><path fill="#daebff" d="M4231.408 1629.88h39.998v4.775h-42.244l-39.186-42.978h-309.941l-28.653 31.235-17.579 19.139-3.717-3.141 17.289-18.823 30.434-33.186h314.433z"/></g><g fill="#daebff"><path d="M4271.406 1663.308v4.775h-42.147l-54.984-52.529h-217.05v-4.776h219.102l54.984 52.53z"/><path d="M4231.311 1682.391h40.095v4.775h-42.147l-54.984-52.511h-219.489v-4.775h221.541z"/></g><g><path fill="#daebff" d="M4271.406 1795.904v6.726l-124.507 118.512h-75.331l-62.805-62.062h-200.187l-185.318 176.671h-147.991l-29.447 28.653h-79.978l-29.331 30.008v95.1l-59.707 59.311v22.428h-4.976v-24.36l59.708-59.293v-95.081l32.157-32.889h80.056l29.427-28.652h148.03l185.337-176.671h204.33l62.786 62.061h71.188z"/></g><g><path fill="#daebff" d="M3008.137 2241.069h-89.186l-32.135-28.65h-27.92v-4.775h29.873l32.135 28.65h85.352l31.746-26.873v-46.57l69.653-67.987v-54.255l.711-.699 77.546-75.788h457.355l168.048-167.124h202.417l75.24 69.755 1.132 35.136-78.417-76.241h-198.283l-168.048 162.348h-448.668l-24.356 24.813v46.812h-4.976v-48.706l27.184-27.693h448.746l168.048-162.349h202.432l70.974 69.004-.676-21.035-72.344-67.069h-198.297l-168.047 167.124H3188l-75.37 73.661v54.265l-69.653 67.987v46.765z"/></g><g><path fill="#daebff" d="M2984.838 2147.887l-3.48-3.413 81.52-76.605v-156.822l24.684-23.324h97.574l59.071 57.299h388.531l171.556-167.123h282.899l45.438 43.221-3.499 3.395-43.989-41.841h-278.769l-171.556 167.123h-392.686l-59.07-57.299h-93.464l-21.745 20.545v156.832z"/></g><g><path fill="#daebff" d="M4271.406 1758.797v4.775h-479.112l-171.553 162.345h-364.556l-59.069-57.286H3068.66l-20.716 24.026v156.956l-84.217 81.627h-50.105v-4.775h48.033l81.314-78.822v-156.696l23.348-27.091h132.871l59.088 57.286h360.432l171.553-162.345z"/></g><g><path fill="#daebff" d="M3619.577 1892.498h-103.959v-4.775h101.908l165.706-157.574h311.857l-14.562-13.975-188.395-.35h-120.925l-150.479 138.474h-69.302l-22.758-19.1h-31.508l-50.927 47.75h-161.992l-32.027-33.425h137.502l39.381-37.654 3.508 3.385-40.834 39.044h-128.222l22.876 23.875h157.777l50.927-47.75h35.404l22.759 19.1h65.434l150.48-138.474h122.931l190.46.35 24.502 23.525h-321.816z"/></g><g><path fill="#daebff" d="M3462.883 2250.274l-44.416-42.63h-44.809l-38.635 38.41-3.581-3.32 40.103-39.865h48.981l45.875 44.029z"/></g><g opacity=".47"><path fill="#daebff" d="M4271.406 1304.874v4.776h-464.069l-.736-.707-378.476-369.693V803.476l-13.146-11.706-6.254-5.575 3.389-3.511 6.311 5.611 14.675 13.081v135.923l376.328 367.575z"/></g><g opacity=".47"><path fill="#daebff" d="M4271.406 1242.794v4.775h-422.192l-371.352-358.6V713.654l-12.488-15.199h-185.473l-46.116 44.26-3.524-3.382 47.569-45.654h189.964L3482.837 712v174.999l368.448 355.795z"/></g><g opacity=".47"><path fill="#daebff" d="M4271.406 1218.917v4.775h-410.169l-.717-.706-357.78-346.114V684.611l-19.787-14.809h-308.527v-4.775h310.231l23.058 17.262v192.614l355.593 344.014z"/></g><g opacity=".47"><path fill="#daebff" d="M4271.406 1199.815v4.776h-398.147l-.735-.706-344.906-339.109V655.104l-25.672-23.505h-108.612v-4.775h110.606l28.654 26.236v209.783l342.756 336.972z"/></g><g opacity=".47"><path fill="#daebff" d="M4271.406 1175.957v4.757h-386.124l-.736-.706-337.026-327.31V625.634l-30.396-32.238h-229.246v-4.776h231.454l33.164 35.156v226.971l334.877 325.21z"/></g><g opacity=".47"><path fill="#daebff" d="M4271.406 1156.855v4.776h-374.101l-.736-.725-324.171-320.304v-244.27l-47.994-45.041-1.2-1.134 3.484-3.419 1.472 1.375 49.214 46.212v244.344l322.022 318.186z"/></g><g opacity=".47"><path fill="#daebff" d="M4271.406 1132.978v4.776h-362.078l-.736-.725-316.291-308.505V522.88l-78.933-77.503h-71.962l-81.739 79.268-2.188 2.118-3.543-3.344 2.11-2.044 83.288-80.773h76.126l81.817 80.327v305.644l314.142 306.405z"/></g><g opacity=".47"><path fill="#daebff" d="M4271.406 1109.101v4.776h-350.055l-.736-.725-303.436-296.725V508.2l-84.682-81.925h-91.11l-61.218 57.305h-121.196v-4.775h119.183l61.198-57.305h95.214l87.587 84.731v308.245l301.287 294.625z"/></g><g><path fill="#daebff" d="M4271.406 1070.898v4.776h-311.973l-156.684-149.952-7.803-7.469 3.524-3.382 7.783 7.451 155.232 148.576z"/></g><g><path fill="#daebff" d="M4271.406 1008.818v4.776h-326.804l-267.735-250.272V415.331l-59.688-55.614v-71.909h4.976v69.884l59.688 55.614v348.009l264.773 247.503z"/></g><g><path fill="#daebff" d="M4271.406 994.492v4.775h-304.849l-254.86-243.266v-340.93h4.975v338.942l251.937 240.479z"/></g><g><path fill="#daebff" d="M4271.406 970.633v4.776h-277.88l-247-231.486V361.297l-18.199-18.284-23.91-24.026 3.582-3.307 23.774 23.895 19.729 19.808v382.533l244.057 228.717z"/></g><g><path fill="#daebff" d="M4271.406 918.104v4.776h-248.859l-226.265-212.701V300.368l-75.196-74.641h-307.849v-4.775h309.96l78.061 77.484v409.736l223.303 209.932z"/></g><g opacity=".47"><ellipse cx="3225.833" cy="750.918" rx="23.214" ry="22.28" fill="#daebff"/></g><g><ellipse cx="3618.871" cy="278.197" rx="23.214" ry="22.28" fill="#daebff"/></g><g><ellipse cx="3713.399" cy="325.947" rx="23.214" ry="22.28" fill="#daebff"/></g><g><ellipse cx="4139.209" cy="1672.788" rx="23.214" ry="22.28" fill="#daebff"/></g><g><ellipse cx="2900.393" cy="2126.408" rx="23.214" ry="22.28" fill="#daebff"/></g><g><ellipse cx="2840.691" cy="2212.357" rx="23.214" ry="22.28" fill="#daebff"/></g><g><ellipse cx="3169.052" cy="2069.109" rx="23.214" ry="22.28" fill="#daebff"/></g><g><ellipse cx="3442.686" cy="1801.711" rx="23.214" ry="22.28" fill="#daebff"/></g><g><ellipse cx="3472.537" cy="2255.332" rx="23.214" ry="22.28" fill="#daebff"/></g><g><ellipse cx="4134.234" cy="1825.586" rx="23.214" ry="22.28" fill="#daebff"/></g><g><ellipse cx="3835.724" cy="1639.363" rx="23.214" ry="22.28" fill="#daebff"/></g><g><ellipse cx="3512.338" cy="1892.435" rx="23.214" ry="22.28" fill="#daebff"/></g><g opacity=".47"><ellipse cx="3399.963" cy="774.792" rx="23.214" ry="22.28" fill="#daebff"/></g><g><ellipse cx="3788.026" cy="908.491" rx="23.214" ry="22.28" fill="#daebff"/></g><g><ellipse cx="2915.319" cy="1968.835" rx="23.214" ry="22.28" fill="#daebff"/></g><g><g><path fill="#daebff" d="M3724.906 1587.926l3.454 3.442-22.664 20.964h-179.532l-16.169-15.21 3.479-3.414 14.721 13.849h175.494z"/></g><g><ellipse cx="3737.823" cy="1578.97" rx="23.214" ry="22.28" fill="#daebff"/></g><g><path d="M3499.023 1549.534c-14.172 0-25.711 11.056-25.711 24.658 0 13.601 11.539 24.676 25.711 24.676 4.414 0 8.576-1.078 12.197-2.954.02-.019.039-.019.039-.019a25.616 25.616 0 002.749-1.672c6.486-4.478 10.706-11.799 10.706-20.031 0-13.602-11.52-24.658-25.691-24.658zm0 44.558c-11.442 0-20.735-8.938-20.735-19.901s9.293-19.882 20.735-19.882c11.422 0 20.716 8.919 20.716 19.882-.001 10.964-9.294 19.901-20.716 19.901z" fill="#daebff"/></g></g><g><path d="M3960.439 1615.554a23.69 23.69 0 00-1.491-4.775c-3.891-8.9-13.049-15.181-23.717-15.181-14.172 0-25.71 11.074-25.71 24.676 0 13.602 11.539 24.657 25.71 24.657 8.577 0 16.205-4.051 20.851-10.275a25.521 25.521 0 002.827-4.775 23.846 23.846 0 002.013-9.607 22.207 22.207 0 00-.483-4.72zm-25.207 24.601c-11.423 0-20.735-8.919-20.735-19.882 0-10.981 9.313-19.901 20.735-19.901 11.423 0 20.716 8.919 20.716 19.901 0 10.963-9.293 19.882-20.716 19.882z" fill="#daebff"/></g><g><path d="M3676.519 1695.862c-5.073 0-9.796 1.412-13.785 3.865a24.315 24.315 0 00-3.949 2.973c-4.918 4.497-7.977 10.833-7.977 17.838 0 13.602 11.539 24.676 25.711 24.676 14.172 0 25.711-11.074 25.711-24.676-.001-13.601-11.539-24.676-25.711-24.676zm0 44.576c-11.423 0-20.735-8.938-20.735-19.901s9.313-19.901 20.735-19.901 20.735 8.938 20.735 19.901c0 10.964-9.313 19.901-20.735 19.901z" fill="#daebff"/></g><g><path d="M2986.862 2145.976a23.632 23.632 0 00-4.124-2.787c-3.756-2.081-8.093-3.252-12.7-3.252-14.172 0-25.691 11.075-25.691 24.676 0 13.601 11.52 24.657 25.691 24.657 14.172 0 25.71-11.056 25.71-24.657.001-7.433-3.446-14.122-8.886-18.637zm-16.824 38.519c-11.423 0-20.716-8.919-20.716-19.882 0-10.963 9.293-19.901 20.716-19.901 11.442 0 20.735 8.938 20.735 19.901s-9.293 19.882-20.735 19.882z" fill="#daebff"/></g><g><path d="M2826.113 1940.243c-2.284-11.353-12.739-19.956-25.227-19.956-14.172 0-25.691 11.074-25.691 24.676 0 13.602 11.52 24.657 25.691 24.657 14.152 0 25.672-11.019 25.71-24.602v-.056c0-1.615-.155-3.195-.483-4.719zm-25.227 24.602c-11.423 0-20.716-8.919-20.716-19.882 0-10.963 9.293-19.901 20.716-19.901 11.442 0 20.735 8.938 20.735 19.901s-9.293 19.882-20.735 19.882z" fill="#daebff"/></g><g><path d="M3276.804 2269.077a27.14 27.14 0 00-3.272-.204c-.581 0-1.143.019-1.704.056-13.378.836-24.007 11.558-24.007 24.602 0 13.602 11.539 24.676 25.711 24.676 14.171 0 25.691-11.074 25.691-24.676 0-12.544-9.796-22.912-22.419-24.454zm-3.272 44.353c-11.423 0-20.735-8.938-20.735-19.901s9.312-19.882 20.735-19.882c11.422 0 20.716 8.919 20.716 19.882 0 10.964-9.294 19.901-20.716 19.901z" fill="#daebff"/></g><g><path d="M3337.44 2243.657a25.22 25.22 0 00-3.678-3.252c-4.298-3.103-9.661-4.961-15.45-4.961-14.172 0-25.711 11.056-25.711 24.657s11.539 24.676 25.711 24.676c14.172 0 25.691-11.074 25.691-24.676.001-6.317-2.478-12.077-6.563-16.444zm-19.128 36.346c-11.442 0-20.735-8.919-20.735-19.901 0-10.963 9.293-19.882 20.735-19.882 11.423 0 20.716 8.919 20.716 19.882 0 10.981-9.293 19.901-20.716 19.901z" fill="#daebff"/></g><g opacity=".47"><path d="M3151.212 640.295c-14.171 0-25.71 11.074-25.71 24.676 0 13.602 11.539 24.658 25.71 24.658 12.449 0 22.845-8.529 25.188-19.826.329-1.542.503-3.14.503-4.775v-.056c.001-13.603-11.518-24.677-25.691-24.677zm0 44.558c-11.442 0-20.735-8.919-20.735-19.882 0-10.982 9.293-19.901 20.735-19.901 11.423 0 20.716 8.919 20.716 19.901 0 10.963-9.293 19.882-20.716 19.882z" fill="#daebff"/></g><g opacity=".47"><path d="M3261.006 478.805c-2.285-11.353-12.739-19.956-25.227-19.956-14.172 0-25.691 11.074-25.691 24.676 0 13.601 11.519 24.657 25.691 24.657 14.152 0 25.672-11.019 25.71-24.602v-.056a22.27 22.27 0 00-.483-4.719zm-25.227 24.601c-11.423 0-20.716-8.919-20.716-19.882 0-10.982 9.293-19.901 20.716-19.901 11.442 0 20.735 8.919 20.735 19.901 0 10.963-9.293 19.882-20.735 19.882z" fill="#daebff"/></g><g opacity=".47"><path d="M3359.667 524.645a24.675 24.675 0 00-3.621-3.27c-4.356-3.27-9.835-5.221-15.779-5.221-14.172 0-25.711 11.056-25.711 24.657s11.539 24.676 25.711 24.676 25.691-11.074 25.691-24.676c0-6.188-2.381-11.837-6.291-16.166zm-19.4 36.066c-11.442 0-20.735-8.919-20.735-19.901 0-10.963 9.293-19.882 20.735-19.882 11.423 0 20.716 8.919 20.716 19.882 0 10.982-9.293 19.901-20.716 19.901z" fill="#daebff"/></g><g opacity=".47"><path d="M3509.419 506.603c-14.172 0-25.71 11.056-25.71 24.657 0 13.62 11.539 24.676 25.71 24.676 5.595 0 10.764-1.728 14.985-4.645a24.227 24.227 0 003.756-3.177c4.318-4.404 6.95-10.331 6.95-16.853 0-13.603-11.519-24.658-25.691-24.658zm0 44.557c-11.422 0-20.735-8.919-20.735-19.901 0-10.963 9.313-19.882 20.735-19.882 11.423 0 20.716 8.919 20.716 19.882 0 10.982-9.293 19.901-20.716 19.901z" fill="#daebff"/></g><g opacity=".47"><path d="M3265.633 563.907c-14.172 0-25.691 11.056-25.691 24.657s11.519 24.676 25.691 24.676c12.448 0 22.865-8.547 25.207-19.845.329-1.542.503-3.14.503-4.775v-.056c.001-13.601-11.538-24.657-25.71-24.657zm0 44.558c-11.423 0-20.716-8.919-20.716-19.901 0-10.963 9.293-19.882 20.716-19.882 11.422 0 20.735 8.919 20.735 19.882 0 10.982-9.313 19.901-20.735 19.901z" fill="#daebff"/></g><g opacity=".47"><path d="M3370.121 602.092c-14.172 0-25.711 11.074-25.711 24.676 0 13.602 11.539 24.676 25.711 24.676 12.448 0 22.845-8.547 25.188-19.845.329-1.542.503-3.14.503-4.775v-.056c0-13.602-11.519-24.676-25.691-24.676zm0 44.576c-11.442 0-20.735-8.938-20.735-19.901s9.293-19.901 20.735-19.901c11.423 0 20.716 8.938 20.716 19.901-.001 10.964-9.294 19.901-20.716 19.901z" fill="#daebff"/></g><g><path d="M3713.4 368.134c-14.172 0-25.711 11.056-25.711 24.658 0 13.044 10.629 23.784 24.007 24.62.562.037 1.123.056 1.704.056 1.104 0 2.207-.074 3.272-.204 12.623-1.542 22.419-11.929 22.419-24.471.001-13.603-11.519-24.659-25.691-24.659zm0 44.559c-11.423 0-20.735-8.919-20.735-19.901 0-10.963 9.312-19.882 20.735-19.882s20.716 8.919 20.716 19.882c0 10.981-9.293 19.901-20.716 19.901z" fill="#daebff"/></g><g><path d="M3390.004 196.239c-14.172 0-25.691 11.056-25.691 24.657 0 13.602 11.519 24.676 25.691 24.676 12.449 0 22.865-8.547 25.207-19.845.329-1.542.503-3.14.503-4.775v-.056c.001-13.601-11.538-24.657-25.71-24.657zm0 44.558c-11.423 0-20.715-8.938-20.715-19.901s9.293-19.901 20.715-19.901c11.442 0 20.735 8.938 20.735 19.901s-9.293 19.901-20.735 19.901z" fill="#daebff"/></g></g><g><g><path fill="#daebff" d="M2304.944 886.08h-6.196v-43.865l-74.356-73.861V649.903l-36.536-37.383h-99.598l-36.676-35.682h-184.303l-230.831-220.041h-249.317l-78.207 77.311h-92.549v-5.947h89.929l78.207-77.311h254.491l.907.863 229.923 219.178h184.34l36.676 35.682h99.688l40.053 40.972V765.95l74.355 73.86z"/></g><g><path fill="#daebff" d="M2852.038 880.133h-77.484l-29.88-23.788h-126.278l-53.207-46.188V756.49l-40.935-39.294 4.381-4.206 42.751 41.037v53.493l49.395 42.878h126.126l29.88 23.788h72.801l79.402-71.364h45.156v5.947h-42.706z"/></g><g><path fill="#daebff" d="M2744.441 832.557h-111.077l-43.389-36.733V737.58l-86.749-84.675v-67.582l-93.867-91.745h-569.64l-209.295-208.144h-246.972l-90.097 83.527-.845 26.198 88.395-85.937h252.124l209.295 202.199h558.884l33.859 34.491v60.661h-6.196v-58.302l-30.338-30.903h-558.787l-209.295-202.199h-246.957l-97.664 94.951 1.407-43.754 93.71-86.879h252.109l209.295 208.143h569.61l97.462 95.265v67.572l86.748 84.674v58l39.535 33.469h106.302l40.022-35.682h28.997v5.947h-26.564z"/></g><g><path fill="#daebff" d="M2661.61 715.778l-102.617-96.434V424.017l-27.078-25.591h-116.411l-73.569 71.364h-489.073l-213.664-208.144h-347.193l-54.777 52.109-4.363-4.222 56.59-53.834h352.339l213.664 208.144h483.893l73.569-71.364h121.53l30.739 29.047v195.32l100.754 94.681z"/></g><g><path fill="#daebff" d="M2743.04 695.777h-54.369l-104.893-101.661V398.641l-25.799-29.95h-159.975l-73.575 71.364h-454.034l-213.67-202.197H975.703v-5.947h683.564l213.669 202.197h448.909l73.575-71.363h165.476l29.079 33.753v195.167l101.28 98.165h51.785z"/></g><g><path fill="#daebff" d="M2289.49 386.532h-201.749l-63.428-59.469h-39.241l-28.343 23.787h-86.31l-208-191.405 4.291-4.292 206.202 189.751h81.487l28.344-23.788h44.094l63.427 59.469h196.509l28.488-29.735h-159.452l-38.605-28.123 3.745-4.739 36.948 26.916h171.482z"/></g><g><path fill="#daebff" d="M2001.325 398.426H1871.85l-206.378-196.249h-530.856v-5.947h533.404l206.378 196.249h126.927z"/></g><g><ellipse cx="2300.86" cy="903.843" rx="28.912" ry="27.749" fill="#daebff"/></g><g><ellipse cx="3001.043" cy="802.745" rx="28.912" ry="27.749" fill="#daebff"/></g><g><ellipse cx="1228.898" cy="321.041" rx="28.912" ry="27.749" fill="#daebff"/></g><g><ellipse cx="2003.437" cy="392.405" rx="28.912" ry="27.749" fill="#daebff"/></g><g><ellipse cx="1644.051" cy="137.749" rx="28.912" ry="27.749" fill="#daebff"/></g><g><ellipse cx="2424.786" cy="618.389" rx="28.912" ry="27.749" fill="#daebff"/></g><g><ellipse cx="2517.731" cy="713.541" rx="28.912" ry="27.749" fill="#daebff"/></g><g><path d="M2839.936 760.126c-17.656 0-32.003 13.787-32.003 30.733v.074c0 2.025.213 4.014.619 5.946 2.923 14.048 15.876 24.695 31.383 24.695 17.657 0 32.022-13.787 32.022-30.715.001-16.946-14.364-30.733-32.021-30.733zm0 55.502c-14.23 0-25.807-11.112-25.807-24.769 0-13.657 11.578-24.787 25.807-24.787 14.23 0 25.807 11.13 25.807 24.787 0 13.658-11.577 24.769-25.807 24.769z" fill="#daebff"/></g><g><path d="M2771.787 659.025c-17.656 0-32.022 13.787-32.022 30.734v.074c0 2.044.213 4.032.639 5.946 2.904 14.066 15.875 24.695 31.383 24.695 17.637 0 32.003-13.787 32.003-30.715 0-16.947-14.365-30.734-32.003-30.734zm0 55.502c-14.249 0-25.826-11.112-25.826-24.769 0-13.657 11.577-24.788 25.826-24.788 14.23 0 25.808 11.13 25.808 24.788s-11.578 24.769-25.808 24.769z" fill="#daebff"/></g><g><path d="M2678.838 706.612c-5.247 0-10.184 1.208-14.559 3.363a31.564 31.564 0 00-5.344 3.289c-7.376 5.649-12.119 14.326-12.119 24.063 0 16.946 14.365 30.733 32.022 30.733 17.657 0 32.003-13.787 32.003-30.733 0-16.947-14.346-30.715-32.003-30.715zm0 55.502c-14.229 0-25.807-11.13-25.807-24.787 0-13.657 11.578-24.769 25.807-24.769 14.23 0 25.808 11.112 25.808 24.769-.001 13.657-11.578 24.787-25.808 24.787z" fill="#daebff"/></g><g><path d="M2096.38 272.478c-17.657 0-32.003 13.787-32.003 30.715 0 16.946 14.346 30.734 32.003 30.734 9.099 0 17.328-3.661 23.135-9.532 1.452-1.431 2.71-2.992 3.833-4.664 3.195-4.775 5.034-10.443 5.034-16.537.001-16.929-14.345-30.716-32.002-30.716zm0 55.502c-14.23 0-25.808-11.111-25.808-24.787 0-13.657 11.578-24.769 25.808-24.769s25.807 11.112 25.807 24.769c0 13.676-11.577 24.787-25.807 24.787z" fill="#daebff"/></g><g><path d="M978.645 231.915c-1.549-15.553-15.256-27.76-31.848-27.76-17.657 0-32.022 13.787-32.022 30.733 0 16.946 14.365 30.715 32.022 30.715 16.592 0 30.299-12.189 31.848-27.742.097-.985.155-1.97.155-2.973s-.058-1.988-.155-2.973zm-31.848 27.742c-14.249 0-25.827-11.112-25.827-24.769 0-13.657 11.578-24.769 25.827-24.769 14.23 0 25.807 11.112 25.807 24.769 0 13.657-11.577 24.769-25.807 24.769z" fill="#daebff"/></g><g><path d="M1105.707 162.774c-17.657 0-32.022 13.787-32.022 30.734 0 16.928 14.365 30.715 32.022 30.715 14.52 0 26.795-9.309 30.706-22.037a28.976 28.976 0 001.162-5.946c.097-.892.135-1.802.135-2.731 0-16.948-14.346-30.735-32.003-30.735zm0 55.502c-14.23 0-25.807-11.112-25.807-24.769 0-13.657 11.578-24.788 25.807-24.788 14.23 0 25.807 11.13 25.807 24.788.001 13.658-11.577 24.769-25.807 24.769z" fill="#daebff"/></g><g><path d="M1219.353 428.152c-1.297-15.794-15.101-28.262-31.887-28.262-17.657 0-32.022 13.787-32.022 30.733 0 7.21 2.594 13.824 6.931 19.064a31.43 31.43 0 006.524 5.946c5.247 3.605 11.655 5.704 18.567 5.704 6.912 0 13.32-2.1 18.547-5.704a30.939 30.939 0 006.525-5.946c3.64-4.385 6.04-9.737 6.718-15.571a29.82 29.82 0 00.213-3.493c0-.836-.039-1.653-.116-2.471zm-15.45 21.536c-4.453 3.549-10.184 5.704-16.437 5.704-6.253 0-11.984-2.155-16.437-5.704-5.731-4.534-9.37-11.39-9.37-19.064 0-13.657 11.577-24.769 25.807-24.769 14.23 0 25.807 11.112 25.807 24.769.001 7.674-3.639 14.53-9.37 19.064z" fill="#daebff"/></g></g><g><g><path fill="#daebff" d="M900.288 572.061h6.196v43.864l74.356 73.861v118.451l36.537 37.384h99.597l36.676 35.681h184.304l230.83 220.041h249.318l78.206-77.311h92.549v5.947h-89.928l-78.208 77.311h-254.49l-.908-.863L1335.4 887.249h-184.34l-36.676-35.681h-99.688l-40.052-40.972V692.19l-74.356-73.86z"/></g><g><path fill="#daebff" d="M680.978 740.95l-4.375 4.199-14.462-13.88-28.286-27.147v-53.496l-49.407-42.886H458.334l-29.893-23.784h-29.118v-5.946h31.364l29.873 23.784h126.269l53.222 46.194v53.662l25.71 24.676z"/></g><g><path fill="#daebff" d="M1919.406 1048.025l-1.413 43.759-93.704 86.867h-252.112l-209.305-208.148H793.269l-97.46-95.266v-67.562L609.055 723v-57.992l-39.534-33.483H463.232l-40.037 35.694h-28.983v-5.946h26.563l40.017-35.695h111.071l43.387 36.736v58.252l86.754 84.675v67.58l93.879 91.736h569.622l209.305 208.148h246.962l90.103-83.523.852-26.199-88.4 85.938h-252.13L1362.91 946.719H804.033l-33.861-34.487v-60.668h6.195v58.309l30.338 30.9h558.78l209.306 202.202h246.942z"/></g><g><path fill="#daebff" d="M543.622 742.362l102.617 96.435v195.326l27.079 25.591h116.41l73.57-71.363h489.073l213.663 208.143h347.193l54.778-52.108 4.362 4.222-56.589 53.833h-352.34l-213.663-208.143H865.882l-73.57 71.363h-121.53l-30.739-29.047v-195.32l-100.754-94.681z"/></g><g><path fill="#daebff" d="M462.193 762.363h54.369l104.892 101.662v195.474l25.799 29.95h159.975l73.576-71.364h454.034l213.67 202.197h681.022v5.947h-683.564l-213.67-202.197H883.388l-73.576 71.364H644.336l-29.078-33.754V866.476l-101.28-98.166h-51.785z"/></g><g><path fill="#daebff" d="M915.742 1071.608h201.75l63.427 59.47h39.241l28.344-23.788h86.31l207.999 191.406-4.29 4.292-206.203-189.751h-81.487l-28.343 23.788h-44.094l-63.427-59.47h-196.51l-28.488 29.735h159.452l38.606 28.123-3.746 4.739-36.948-26.915H875.853z"/></g><g><path fill="#daebff" d="M1203.907 1059.714h129.475l206.378 196.25h530.856v5.947h-533.403l-206.378-196.25h-126.928z"/></g><g><ellipse cx="904.373" cy="554.297" rx="28.912" ry="27.749" fill="#daebff"/></g><g><ellipse cx="1976.334" cy="1137.099" rx="28.912" ry="27.749" fill="#daebff"/></g><g><ellipse cx="1201.796" cy="1065.735" rx="28.912" ry="27.749" fill="#daebff"/></g><g><ellipse cx="1561.182" cy="1320.392" rx="28.912" ry="27.749" fill="#daebff"/></g><g><ellipse cx="780.446" cy="839.751" rx="28.912" ry="27.749" fill="#daebff"/></g><g><ellipse cx="687.502" cy="744.6" rx="28.912" ry="27.749" fill="#daebff"/></g><g><path d="M396.69 661.273h-2.478v5.946h3.098c0-2.025-.213-4.013-.62-5.946z" fill="#daebff"/></g><g><path d="M464.819 762.356c-2.904-14.066-15.856-24.695-31.364-24.695-17.657 0-32.022 13.787-32.022 30.734 0 16.927 14.366 30.715 32.022 30.715 17.657 0 32.003-13.787 32.003-30.715v-.093c0-2.026-.213-4.014-.639-5.946zm-31.363 30.807c-14.23 0-25.807-11.112-25.807-24.769 0-13.676 11.577-24.787 25.807-24.787 14.23 0 25.807 11.112 25.807 24.787 0 13.658-11.578 24.769-25.807 24.769z" fill="#daebff"/></g><g><path d="M526.405 690.093c-17.657 0-32.022 13.769-32.022 30.715 0 16.946 14.366 30.734 32.022 30.734 5.227 0 10.164-1.208 14.54-3.382a30.39 30.39 0 005.344-3.289c7.376-5.63 12.12-14.326 12.12-24.063-.001-16.946-14.367-30.715-32.004-30.715zm0 55.484c-14.249 0-25.827-11.112-25.827-24.769 0-13.657 11.578-24.769 25.827-24.769 14.23 0 25.807 11.112 25.807 24.769 0 13.657-11.577 24.769-25.807 24.769z" fill="#daebff"/></g><g><path d="M1108.844 1124.227c-9.08 0-17.289 3.642-23.116 9.514a29.988 29.988 0 00-3.833 4.682c-3.195 4.775-5.053 10.443-5.053 16.519 0 16.946 14.365 30.715 32.003 30.715 17.657 0 32.022-13.769 32.022-30.715-.001-16.947-14.367-30.715-32.023-30.715zm0 55.483c-14.23 0-25.807-11.112-25.807-24.769s11.578-24.769 25.807-24.769c14.249 0 25.827 11.112 25.827 24.769s-11.578 24.769-25.827 24.769z" fill="#daebff"/></g><g><path d="M2258.446 1192.531c-16.611 0-30.318 12.208-31.867 27.742-.097.985-.155 1.97-.155 2.973s.058 2.007.155 2.992c1.568 15.552 15.256 27.742 31.867 27.742 17.637 0 32.003-13.787 32.003-30.733-.001-16.928-14.366-30.716-32.003-30.716zm0 55.503c-14.23 0-25.827-11.112-25.827-24.787 0-13.657 11.597-24.769 25.827-24.769s25.807 11.112 25.807 24.769c0 13.675-11.577 24.787-25.807 24.787z" fill="#daebff"/></g><g><path d="M2099.535 1233.912c-14.52 0-26.814 9.309-30.705 22.056a27.724 27.724 0 00-1.181 5.946 25.263 25.263 0 00-.136 2.731c0 16.928 14.366 30.715 32.022 30.715 17.637 0 32.003-13.787 32.003-30.715 0-16.946-14.365-30.733-32.003-30.733zm0 55.502c-14.249 0-25.827-11.112-25.827-24.769 0-13.676 11.578-24.787 25.827-24.787 14.23 0 25.808 11.112 25.808 24.787 0 13.658-11.578 24.769-25.808 24.769z" fill="#daebff"/></g><g><path d="M2017.776 996.796c-16.437 0-30.009 11.948-31.809 27.24a29.3 29.3 0 00-.213 3.475c0 .836.039 1.654.116 2.471 1.297 15.794 15.12 28.262 31.906 28.262 17.638 0 32.003-13.787 32.003-30.734 0-16.927-14.365-30.714-32.003-30.714zm0 55.502c-14.249 0-25.827-11.112-25.827-24.788 0-13.657 11.578-24.769 25.827-24.769 14.23 0 25.807 11.112 25.807 24.769.001 13.677-11.577 24.788-25.807 24.788z" fill="#daebff"/></g></g><g><g opacity=".42"><path fill="#daebff" d="M1464.088 1979.58v46.267h-6.058v-43.87l-72.697-73.861v-118.437l-35.724-37.386h-97.402l-35.856-35.694h-180.228l-225.72-220.04H566.622l-76.483 77.317h-90.492v-5.946h87.936l76.464-77.317h248.855l.89.873 224.83 219.167h180.265l35.857 35.695h97.478l39.169 40.971v118.4z"/></g><g><path fill="#daebff" d="M2011.188 2019.902h-77.484l-29.88-23.788h-126.277l-53.207-46.187v-53.668l-40.936-39.295 4.382-4.204 42.751 41.036v53.494l49.394 42.877h126.126l29.88 23.788h72.801l79.402-71.363h45.157v5.947h-42.706z"/></g><g opacity=".42"><path fill="#daebff" d="M1903.591 1972.326h-111.076l-43.39-36.733v-58.244l-86.748-84.674v-67.583l-93.868-91.745H998.87l-209.295-208.144H542.603l-90.098 83.528-.844 26.198 88.394-85.938H792.18l209.294 202.2h558.885l33.859 34.491v60.66h-6.197v-58.302l-30.337-30.902H998.897l-209.295-202.2H542.645l-97.664 94.951 1.406-43.754 93.71-86.879h252.11l209.295 208.144h569.61l97.461 95.264v67.571l86.749 84.675v58l39.534 33.469h106.303l40.022-35.681h28.997v5.947h-26.565z"/></g><g><path fill="#daebff" d="M1825.102 1851.295l-4.337 4.255-2.672-2.509-99.958-93.928v-195.327l-27.066-25.586h-116.414l-73.569 71.352h-489.083l-213.662-208.129h-347.19l-42.244 40.191-9.584 9.105-2.943 2.806-4.356-4.218 7.299-6.95 4.84-4.589 44.432-42.291h352.341l213.681 208.129h483.894l73.55-71.352h121.545l30.725 29.042v195.327l99.106 93.111z"/></g><g><path fill="#daebff" d="M1902.195 1829.592v5.946h-54.364l-104.895-101.659v-195.475l-25.807-29.935h-159.976l-73.569 71.353h-454.041L815.882 1377.62H399.323v-5.946h419.095l213.662 202.202h448.91l73.588-71.371h165.474l29.079 33.762v195.16l101.275 98.165z"/></g><g><path fill="#daebff" d="M1160.478 1532.254v5.946h-129.483l-206.382-196.256h-425.29v-5.946h427.846l206.382 196.256z"/></g><g opacity=".42"><ellipse cx="1460.011" cy="2043.613" rx="28.912" ry="27.749" fill="#daebff"/></g><g><ellipse cx="2160.194" cy="1942.514" rx="28.912" ry="27.749" fill="#daebff"/></g><g><path d="M416.96 1460.808c0 11.502-7.279 21.35-17.637 25.568v-35.658l-2.943 2.806-4.356-4.218 7.299-6.949v-7.117a29.54 29.54 0 014.84 2.527c1.723 1.115 3.33 2.397 4.743 3.846 4.996 4.981 8.054 11.726 8.054 19.195z" fill="#daebff"/></g><g><ellipse cx="1162.588" cy="1532.174" rx="28.912" ry="27.749" fill="#daebff"/></g><g><ellipse cx="803.202" cy="1277.518" rx="28.912" ry="27.749" fill="#daebff"/></g><g opacity=".42"><ellipse cx="1583.937" cy="1758.159" rx="28.912" ry="27.749" fill="#daebff"/></g><g><ellipse cx="1676.881" cy="1853.31" rx="28.912" ry="27.749" fill="#daebff"/></g><g><path d="M1999.094 1899.903c-17.657 0-32.022 13.769-32.022 30.715v.074c0 2.026.213 4.014.619 5.946 2.923 14.066 15.895 24.713 31.403 24.713 17.637 0 32.003-13.787 32.003-30.734-.001-16.945-14.366-30.714-32.003-30.714zm0 55.503c-14.23 0-25.827-11.13-25.827-24.788 0-13.657 11.597-24.769 25.827-24.769 14.23 0 25.807 11.112 25.807 24.769 0 13.658-11.577 24.788-25.807 24.788z" fill="#daebff"/></g><g><path d="M1930.926 1798.802c-17.637 0-32.003 13.787-32.003 30.715v.074c0 2.025.213 4.014.62 5.946 2.923 14.066 15.895 24.713 31.383 24.713 17.657 0 32.022-13.787 32.022-30.734 0-16.926-14.366-30.714-32.022-30.714zm0 55.503c-14.23 0-25.807-11.13-25.807-24.787s11.578-24.769 25.807-24.769c14.249 0 25.827 11.112 25.827 24.769s-11.578 24.787-25.827 24.787z" fill="#daebff"/></g><g><path d="M1837.976 1846.371c-5.247 0-10.183 1.208-14.54 3.363a31.716 31.716 0 00-5.344 3.307c-7.376 5.63-12.12 14.326-12.12 24.063 0 16.928 14.365 30.715 32.003 30.715 17.657 0 32.022-13.787 32.022-30.715.002-16.946-14.364-30.733-32.021-30.733zm0 55.502c-14.23 0-25.807-11.112-25.807-24.769 0-13.657 11.578-24.787 25.807-24.787 14.249 0 25.827 11.13 25.827 24.787 0 13.657-11.577 24.769-25.827 24.769z" fill="#daebff"/></g><g><path d="M378.511 1567.93h-2.982v5.946h2.885a29.82 29.82 0 00.213-3.493c0-.818-.039-1.636-.116-2.453z" fill="#daebff"/></g></g><g><g><path fill="#daebff" d="M1265.857 944.601v46.268h-6.196v-43.871l-.271-.279-6.001-5.946-53.88-53.532-5.983-5.947-8.209-8.157V754.682l-36.552-37.367h-99.59l-36.669-35.695H828.195L597.361 461.58H399.323v-5.946h200.594l.909.873 229.925 219.167h184.33l36.688 35.695h99.687l40.057 40.971v118.4l10.628 10.554 5.983 5.947 53.88 53.532z"/></g><g><path fill="#daebff" d="M1812.955 984.92h-77.484l-29.88-23.787h-126.277l-53.207-46.188v-53.668l-40.936-39.294 4.381-4.205 42.751 41.037v53.493l49.395 42.878h126.125l29.881 23.788h72.8l79.403-71.364h45.156v5.947h-42.705z"/></g><g fill="#daebff"><path d="M1362.117 616.214l33.861 34.487v60.668h-6.195V653.06l-30.338-30.9h-558.78L591.359 419.958H399.323v-5.946h194.63L803.24 616.214z"/><path d="M1771.938 895.714v5.946h-26.563l-40.018 35.676h-111.07l-43.387-36.717v-58.252l-86.754-84.675v-67.58l-93.879-91.755H800.645L591.34 390.228H399.323v-5.946h194.65l209.286 208.129h569.622l97.46 95.266v67.581l86.754 84.675v57.992l39.534 33.465h106.289l40.037-35.676z"/></g><g><path fill="#daebff" d="M1626.851 816.316l-4.317 4.255-2.672-2.509-99.958-93.928V528.807l-27.066-25.586h-116.414l-73.57 71.352H813.772L600.11 366.425H399.323v-5.946h203.381l213.662 208.148h483.894l73.57-71.352h121.544l30.725 29.042v195.308l99.106 93.13z"/></g><g><path fill="#daebff" d="M1703.964 794.613v5.946h-54.384L1544.705 698.9V503.425l-25.808-29.953h-159.975l-73.569 71.371H831.312L617.651 342.641H399.323v-5.946h220.864l213.661 202.202h448.91l73.57-71.371h165.493l29.079 33.762v195.16l101.274 98.165z"/></g><g><path fill="#daebff" d="M1250.407 491.32h-201.749l-63.428-59.47h-39.241l-28.343 23.788h-86.31l-208-191.406 4.29-4.292 206.203 189.751h81.487l28.343-23.787h44.095l63.427 59.469h196.509l28.488-29.735h-159.452l-38.606-28.123 3.746-4.739 36.948 26.915h171.482z"/></g><g><path fill="#daebff" d="M962.247 497.275v5.946H832.764L626.382 306.965H399.323v-5.946h229.615L835.32 497.275z"/></g><g><ellipse cx="1261.777" cy="1008.631" rx="28.912" ry="27.749" fill="#daebff"/></g><g><ellipse cx="1961.96" cy="907.533" rx="28.912" ry="27.749" fill="#daebff"/></g><g><ellipse cx="964.354" cy="497.193" rx="28.912" ry="27.749" fill="#daebff"/></g><g><ellipse cx="604.968" cy="242.536" rx="28.912" ry="27.749" fill="#daebff"/></g><g><ellipse cx="1385.703" cy="723.177" rx="28.912" ry="27.749" fill="#daebff"/></g><g><ellipse cx="1478.648" cy="818.328" rx="28.912" ry="27.749" fill="#daebff"/></g><g><path d="M1800.862 864.924c-17.657 0-32.022 13.769-32.022 30.715v.074c0 2.025.213 4.014.62 5.946 2.923 14.066 15.895 24.694 31.403 24.694 17.637 0 32.003-13.769 32.003-30.715-.001-16.945-14.366-30.714-32.004-30.714zm0 55.484c-14.249 0-25.827-11.112-25.827-24.769s11.578-24.769 25.827-24.769c14.23 0 25.807 11.112 25.807 24.769s-11.577 24.769-25.807 24.769z" fill="#daebff"/></g><g><path d="M1732.694 763.823c-17.657 0-32.003 13.769-32.003 30.715v.074c0 2.025.213 4.013.62 5.946 2.923 14.066 15.875 24.713 31.383 24.713 17.657 0 32.003-13.787 32.003-30.734 0-16.945-14.346-30.714-32.003-30.714zm0 55.503c-14.23 0-25.807-11.13-25.807-24.788 0-13.657 11.578-24.769 25.807-24.769 14.23 0 25.807 11.112 25.807 24.769.001 13.658-11.577 24.788-25.807 24.788z" fill="#daebff"/></g><g><path d="M1639.745 811.392a32.82 32.82 0 00-14.54 3.363 31.657 31.657 0 00-5.344 3.308c-7.376 5.63-12.12 14.326-12.12 24.063 0 16.927 14.365 30.715 32.003 30.715 17.657 0 32.022-13.787 32.022-30.715.001-16.947-14.364-30.734-32.021-30.734zm0 55.502c-14.23 0-25.807-11.112-25.807-24.769 0-13.676 11.578-24.787 25.807-24.787 14.249 0 25.827 11.112 25.827 24.787 0 13.657-11.578 24.769-25.827 24.769z" fill="#daebff"/></g><g><path d="M1057.306 377.258c-17.657 0-32.022 13.787-32.022 30.733 0 16.928 14.365 30.715 32.022 30.715 9.08 0 17.289-3.66 23.116-9.514a29.988 29.988 0 003.833-4.682c3.195-4.775 5.053-10.443 5.053-16.519.001-16.946-14.364-30.733-32.002-30.733zm0 55.502c-14.249 0-25.827-11.112-25.827-24.769 0-13.676 11.578-24.788 25.827-24.788 14.23 0 25.807 11.112 25.807 24.788.001 13.658-11.577 24.769-25.807 24.769z" fill="#daebff"/></g></g></g></g><defs><filter id="a" filterUnits="userSpaceOnUse" x="0" y="2325.136" width="4680" height="490.336"><feFlood result="back" flood-color="#fff" flood-opacity="1"/><feBlend in="SourceGraphic" in2="back"/></filter></defs><mask maskUnits="userSpaceOnUse" x="0" y="2325.136" width="4680" height="490.336" id="c"><g filter="url(#a)"><defs><filter id="b" filterUnits="userSpaceOnUse" x="0" y="2325.136" width="4680" height="490.336"><feFlood result="back" flood-color="#fff" flood-opacity="1"/><feBlend in="SourceGraphic" in2="back"/></filter></defs><linearGradient id="d" gradientUnits="userSpaceOnUse" x1="2340" y1="3006.164" x2="2340" y2="2207.682"><stop offset="0"/><stop offset=".984" stop-color="#fff"/></linearGradient><path mask="url(#c)" fill="url(#d)" d="M0 2325.136h4680v490.336H0z"/></g></mask><linearGradient id="e" gradientUnits="userSpaceOnUse" x1="2340" y1="3006.164" x2="2340" y2="2207.682"><stop offset="0" stop-color="#f3f6fd"/><stop offset=".984" stop-color="#e2eefa"/></linearGradient><path fill="url(#e)" d="M0 2325.136h4680v490.336H0z"/><g><path d="M3862.929 2430.806H1717.225c-4.753 0-8.643 3.816-8.643 8.479v30.549c0 4.664 3.889 8.479 8.643 8.479h378.887v38.816c0 4.663 3.889 8.479 8.642 8.479h1122.591c4.754 0 8.643-3.816 8.643-8.479v-38.816h626.942c4.753 0 8.643-3.815 8.643-8.479v-30.549c-.001-4.663-3.891-8.479-8.644-8.479z" opacity=".64" fill="#c7d0e0"/><g><path d="M1851.556 739.559v343.54c0 20.452-16.894 37.026-37.741 37.026h-508.313c-20.846 0-37.741-16.575-37.741-37.026v-343.54c0-20.452 16.894-37.026 37.741-37.026h508.313c20.846-.001 37.741 16.574 37.741 37.026z" fill="#b8dcff"/><path d="M1840.795 726.971v343.54c0 20.452-16.894 37.026-37.741 37.026h-508.313c-20.846 0-37.741-16.575-37.741-37.026v-343.54c0-20.452 16.894-37.026 37.741-37.026h508.313c20.847 0 37.741 16.575 37.741 37.026z" fill="#daebff"/><g><path d="M1629.486 770.024c.005-2.91-1.871-2.469-3.746-2.799-15.961-2.804-25.653-12.298-28.069-27.876-.438-2.828-1.485-3.346-3.972-3.327-16.959.126-33.918.167-50.878.235-16.733-.069-33.466-.103-50.198-.241-2.691-.022-4.016.465-4.551 3.568-2.746 15.937-12.063 25.076-28.207 27.637-3.089.49-3.727 1.567-3.747 4.293-.185 24.93-1.038 49.917 7.966 73.888l5.963 13.542c1.205 1.937 2.439 3.858 3.612 5.813 16.225 27.033 38.951 46.497 69.181 57.233 37.255-13.172 62.302-38.651 77.618-73.991 10.893-25.129 8.986-51.649 9.028-77.975z" fill="#00d569"/><path fill="#fefefe" d="M1523.506 813.352l12.767 10.873 37.547-35.597 16.066 14.523-52.349 52.067-29.605-27.982z"/></g><g><path d="M1667.662 1056.686h-255.668c-6.7 0-12.182-5.482-12.182-12.182v-27.282c0-6.7 5.482-12.182 12.182-12.182h255.668c6.7 0 12.182 5.482 12.182 12.182v27.282c0 6.7-5.482 12.182-12.182 12.182zM1667.662 986.443h-255.668c-6.7 0-12.182-5.482-12.182-12.182v-27.282c0-6.7 5.482-12.182 12.182-12.182h255.668c6.7 0 12.182 5.482 12.182 12.182v27.282c0 6.7-5.482 12.182-12.182 12.182z" fill="#fff"/><g><g fill="#20288a"><path d="M1463.483 1021.78l-6.237 8.052v.129l9.914-1.287v4.38l-9.914-1.16v.13l6.303 7.729-4.137 2.319-3.94-9.018h-.131l-4.268 9.083-3.743-2.319 6.238-7.859v-.129l-9.718 1.225v-4.38l9.652 1.223v-.129l-6.172-7.859 4.006-2.254 4.07 8.953h.132l4.005-9.018 3.94 2.189zM1490.733 1021.78l-6.237 8.052v.129l9.914-1.287v4.38l-9.914-1.16v.13l6.303 7.729-4.137 2.319-3.94-9.018h-.131l-4.268 9.083-3.743-2.319 6.238-7.859v-.129l-9.718 1.225v-4.38l9.652 1.223v-.129l-6.172-7.859 4.005-2.254 4.071 8.953h.132l4.005-9.018 3.94 2.189zM1517.982 1021.78l-6.237 8.052v.129l9.914-1.287v4.38l-9.914-1.16v.13l6.303 7.729-4.137 2.319-3.94-9.018h-.131l-4.268 9.083-3.743-2.319 6.238-7.859v-.129l-9.718 1.225v-4.38l9.652 1.223v-.129l-6.172-7.859 4.006-2.254 4.07 8.953h.132l4.005-9.018 3.94 2.189zM1545.232 1021.78l-6.237 8.052v.129l9.914-1.287v4.38l-9.914-1.16v.13l6.303 7.729-4.137 2.319-3.94-9.018h-.131l-4.268 9.083-3.743-2.319 6.238-7.859v-.129l-9.718 1.225v-4.38l9.652 1.223v-.129l-6.172-7.859 4.005-2.254 4.07 8.953h.132l4.005-9.018 3.941 2.189zM1572.482 1021.78l-6.237 8.052v.129l9.914-1.287v4.38l-9.914-1.16v.13l6.303 7.729-4.137 2.319-3.94-9.018h-.131l-4.268 9.083-3.743-2.319 6.238-7.859v-.129l-9.718 1.225v-4.38l9.652 1.223v-.129l-6.172-7.859 4.006-2.254 4.07 8.953h.132l4.005-9.018 3.94 2.189zM1599.731 1021.78l-6.237 8.052v.129l9.914-1.287v4.38l-9.914-1.16v.13l6.303 7.729-4.137 2.319-3.94-9.018h-.131l-4.268 9.083-3.743-2.319 6.238-7.859v-.129l-9.718 1.225v-4.38l9.652 1.223v-.129l-6.172-7.859 4.006-2.254 4.07 8.953h.132l4.005-9.018 3.94 2.189zM1626.981 1021.78l-6.237 8.052v.129l9.914-1.287v4.38l-9.914-1.16v.13l6.303 7.729-4.137 2.319-3.94-9.018h-.131l-4.268 9.083-3.743-2.319 6.238-7.859v-.129l-9.718 1.225v-4.38l9.652 1.223v-.129l-6.172-7.859 4.006-2.254 4.07 8.953h.132l4.005-9.018 3.94 2.189z"/></g></g><path d="M1643.04 964.687h-207.752a1.668 1.668 0 01-1.663-1.663v-3.725c0-.915.749-1.663 1.663-1.663h207.752c.915 0 1.663.748 1.663 1.663v3.725c0 .915-.748 1.663-1.663 1.663z" fill="#20288a"/></g><path d="M1840.795 726.971v343.54c0 20.452-16.894 37.026-37.741 37.026h-410.016l316.019-417.593h93.998c20.846.001 37.74 16.576 37.74 37.027z" opacity=".42" fill="#fff"/></g><path d="M2390.164 2376.312s3.973 10.545-10.69 21.573c-14.664 11.028 50.694 52.2 87.776 10.19 0 0-24.426-25.738-26.269-47.66-1.843-21.923-50.817 15.897-50.817 15.897z" fill="#f87b67"/><g><path d="M2243.503 2466.813c.73 2.652 2.948 3.174 5.271 3.544.842-.039 1.686-.112 2.53-.112 70.085-.006 140.171-.007 210.256-.002.965 0 1.93.081 2.895.124l1.663.033c4.08-.666 6.693-2.823 7.359-6.962-2.415-2.134-1.456-4.026.435-5.851l.118-.693-.634-2.002c-1.206.073-2.411.208-3.617.208-74.097.003-148.195-.007-222.292-.004-1.324 0-2.649.143-3.973.22l-.107.827.096 10.67z" fill="#ed442e"/><path d="M2243.506 2448.968c.08.23.16.459.238.69l67.44.148 7.988.044 45.111.048 5.78.069 1.542-.083c.005-4.034-2.104-7.31-4.337-10.361-2.903-3.965-7.498-4.822-12.141-5.205-9.633-.795-19.233-1.835-28.797-3.237-7.789-1.142-15.246-3.241-18.774-11.514-1.903.263-37.26 12.38-50.733 16.151-7.155 2.002-12.065 5.746-13.317 13.25zM2474.323 2425.423l-.182-3.565-.167-2.841-.164-1.364-.559-.575c-7.269 1.143-14.546 2.05-21.76 3.743-9.871 2.316-18.281 6.681-25.118 13.883-4.402 4.636-8.841 9.325-11.292 15.376.842-.046 1.683-.133 2.524-.131 18.834.039 37.668.088 56.501.135.705-8.214.932-16.434.217-24.661z" fill="#ffb8b3"/><path d="M2243.513 2455.316c1.324-.076 2.649-.22 3.973-.22 74.097-.003 148.195.007 222.292.004 1.206 0 2.411-.135 3.616-.208l.623-1.603c.002-.2.045-.392.129-.574-.725.036-1.45.102-2.175.102-74.102.008-148.204.014-222.305.005-2.051 0-4.102-.15-6.153-.23v2.724z" fill="#166f99"/><path d="M2243.513 2452.592c2.051.08 4.102.23 6.153.23 74.102.008 148.204.003 222.305-.005.725 0 1.45-.066 2.175-.102l.269-.86-.311-1.77c-18.834-.047-37.668-.096-56.501-.135-.841-.002-1.683.085-2.525.131-4.432.102-8.865.341-13.294.274-7.949-.12-15.9-.333-23.84-.713-2.149-.103-4.201 1.09-6.341.242l-1.542.083c-1.936.736-3.863.741-5.78-.069l-45.111-.048c-2.667.857-5.33.894-7.988-.044l-67.44-.148-.327.773-.006 1.396c.036.254.07.51.104.765z" fill="#f7fafa"/><path d="M2473.477 2463.438l.599-5.121-.163-.732c-1.892 1.828-2.852 3.72-.436 5.853z" fill="#2c3b55"/><path d="M2468.266 2472.545l.518.38c.196-.557-.352-.246-.494-.408l-.024.028z" fill="#1a80ad"/><path d="M2391.432 2398.806c-1.718-.899-3.035-2.239-4.237-3.706-.792-.709-1.705-1.326-2.357-2.143-3.915-4.897-7.284-5.435-12.835-1.961.539.429-64.337 27.318-64.568 29.317 3.528 8.271 11.105 9.626 18.894 10.768 9.564 1.402 19.165 2.442 28.797 3.237 4.643.383 9.238 1.24 12.141 5.205 2.233 3.051 4.342 6.327 4.337 10.361 2.75.629 39.043.299 43.475.198 2.451-6.051 6.891-10.74 11.292-15.377 6.838-7.202 15.248-11.567 25.118-13.883 7.214-1.693 14.491-2.6 21.76-3.743-.279-4.024-.626-8.065-2.243-11.812-1.433-3.32-4.457-4.139-6.946-1.69-4.53 4.458-10.103 6.423-16.215 7.068-12.872 1.358-25.782 2.442-38.417-1.563-6.729-2.133-12.821-5.462-17.996-10.276z" fill="#ed442e"/><path d="M2311.184 2449.805c2.657.938 5.32.901 7.988.044l-7.988-.044zM2364.282 2449.897c1.917.81 3.844.804 5.78.069l-5.78-.069z" fill="#e4e6e9"/><path d="M2363.084 2390.707l7.413 8.219a1.35 1.35 0 001.874.112l2.633-2.285a1.29 1.29 0 00.115-1.838l-7.413-8.219a1.35 1.35 0 00-1.874-.112l-2.633 2.285a1.287 1.287 0 00-.115 1.838zM2353.245 2395.86l7.413 8.219a1.35 1.35 0 001.874.112l2.633-2.286a1.29 1.29 0 00.115-1.838l-7.413-8.219a1.35 1.35 0 00-1.874-.112l-2.633 2.285a1.289 1.289 0 00-.115 1.839zM2343.406 2401.014l7.413 8.219a1.35 1.35 0 001.874.112l2.632-2.286a1.29 1.29 0 00.115-1.838l-7.413-8.219a1.35 1.35 0 00-1.874-.112l-2.633 2.285a1.29 1.29 0 00-.114 1.839zM2333.567 2406.168l7.413 8.219a1.35 1.35 0 001.874.112l2.633-2.285a1.29 1.29 0 00.114-1.839l-7.413-8.219a1.35 1.35 0 00-1.874-.112l-2.633 2.285a1.29 1.29 0 00-.114 1.839zM2322.477 2410.749l7.413 8.219a1.35 1.35 0 001.874.112l2.633-2.286a1.29 1.29 0 00.115-1.838l-7.413-8.219a1.35 1.35 0 00-1.874-.112l-2.632 2.285a1.288 1.288 0 00-.116 1.839z" fill="#fff"/></g><path d="M2277.388 2400.38s3.973 10.545-10.691 21.573c-14.664 11.028 50.694 52.2 87.776 10.19 0 0-24.426-25.738-26.269-47.66-1.843-21.923-50.816 15.897-50.816 15.897z" fill="#f87b67"/><path d="M2308.316 2178.141s69.417 200.089 74.331 208.526c0 0 49.275.603 66.103-19.286 0 0 3.927-304.352-43.374-321.829-47.302-17.478-170.777 0-170.777 0l73.717 132.589z" fill="#1d2a7c"/><path d="M2441.573 2171.516s-64.207-51.232-112.683 51.757l-48.53-139.707-22.115-107.857 164.063 49.955 19.265 145.852z" opacity=".66" fill="#0b1e63"/><path d="M2322.914 2197.456s1.374-78.377 3.524-86.814c6.9-27.077 117.64-3.616 117.64-3.616v-50.022l-169.549 3.616 48.385 136.836z" opacity=".66" fill="#0d1a49"/><path d="M2785.479 2004.57s-3.686 86.785-43.77 86.333c-40.083-.452-410.971-3.616-452.436-12.656 0 0 60.816 153.23 50.68 329.513 0 0-29.487 11.3-65.424-2.26 0 0-212.857-390.534-151.35-435.283s482.089-93.566 482.089-93.566l180.211 127.919z" fill="#20288a"/><path d="M2523.323 1889.76s127.161 83.169 114.261 135.15c-13.349 53.788-203.601 58.723-203.601 58.723s321.432 50.284 340.361-22.74c18.929-73.023 11.135-100.922 11.135-100.922l-262.156-70.211z" opacity=".66" fill="#0b1e63"/><path d="M2576.506 1909.812s78.279 50.16 101.623 78.486 101.669 49.486 101.669 49.486 10.293-22.553 4.071-42.649c-6.223-20.096-207.363-85.323-207.363-85.323z" opacity=".94" fill="#0d1a49"/><g><path d="M2130.548 2490.802c.73 2.652 2.948 3.174 5.271 3.544.842-.039 1.686-.112 2.53-.112 70.085-.006 140.171-.007 210.256-.002.965 0 1.93.081 2.895.124l1.663.033c4.08-.665 6.693-2.823 7.359-6.962-2.415-2.134-1.456-4.026.435-5.851l.119-.694-.634-2.001c-1.206.072-2.411.208-3.617.208-74.097.002-148.194-.008-222.292-.004-1.324 0-2.649.143-3.973.22l-.107.827.095 10.67z" fill="#ed442e"/><path d="M2130.551 2472.957c.08.23.16.46.238.69l67.439.148 7.988.044 45.111.048 5.779.069 1.542-.083c.005-4.033-2.104-7.31-4.337-10.361-2.903-3.965-7.498-4.822-12.141-5.205-9.633-.795-19.233-1.835-28.797-3.237-7.789-1.142-15.246-3.241-18.774-11.514-1.903.264-37.26 12.381-50.733 16.151-7.153 2.002-12.063 5.747-13.315 13.25zM2361.367 2449.412l-.182-3.565-.167-2.841-.164-1.364-.559-.575c-7.269 1.143-14.546 2.05-21.76 3.743-9.871 2.316-18.281 6.681-25.118 13.884-4.402 4.636-8.841 9.325-11.292 15.376.841-.046 1.683-.133 2.524-.131 18.834.039 37.667.088 56.501.135.706-8.215.933-16.435.217-24.662z" fill="#ffb8b3"/><path d="M2130.559 2479.305c1.324-.076 2.649-.22 3.973-.22 74.097-.003 148.194.007 222.292.004 1.206 0 2.412-.136 3.616-.208l.623-1.603c.002-.2.045-.392.129-.574-.725.036-1.45.102-2.175.102-74.102.008-148.204.014-222.305.005-2.051 0-4.102-.15-6.154-.23l.001 2.724z" fill="#1d2a7c"/><path d="M2130.558 2476.581c2.051.08 4.102.23 6.154.23 74.102.008 148.204.003 222.305-.005.725 0 1.45-.066 2.175-.102l.269-.86-.31-1.77c-18.834-.047-37.668-.096-56.501-.135-.841-.002-1.683.085-2.525.131-4.432.101-8.865.341-13.294.273-7.949-.12-15.9-.333-23.84-.713-2.149-.103-4.201 1.091-6.341.242l-1.542.083c-1.936.735-3.863.741-5.78-.069l-45.111-.048c-2.667.857-5.33.894-7.988-.044l-67.439-.148-.327.773-.005 1.396c.032.256.066.511.1.766z" fill="#f7fafa"/><path d="M2360.521 2487.428l.599-5.121-.163-.732c-1.892 1.827-2.851 3.719-.436 5.853z" fill="#2c3b55"/><path d="M2355.312 2496.534l.518.38c.196-.557-.352-.246-.494-.408l-.024.028z" fill="#1a80ad"/><path d="M2278.477 2422.795c-1.718-.899-3.035-2.239-4.237-3.706-.792-.709-1.705-1.326-2.357-2.143-3.915-4.897-7.284-5.435-12.835-1.961.539.429-64.337 27.318-64.568 29.317 3.528 8.271 11.105 9.626 18.894 10.768 9.564 1.402 19.165 2.442 28.797 3.237 4.643.383 9.238 1.24 12.141 5.205 2.233 3.051 4.342 6.327 4.337 10.361 2.75.629 39.043.299 43.475.198 2.451-6.052 6.891-10.74 11.292-15.377 6.838-7.202 15.247-11.567 25.118-13.884 7.214-1.692 14.491-2.6 21.76-3.743-.279-4.024-.626-8.065-2.243-11.812-1.433-3.32-4.457-4.139-6.946-1.69-4.53 4.458-10.102 6.423-16.215 7.068-12.872 1.358-25.782 2.441-38.417-1.563-6.729-2.132-12.821-5.46-17.996-10.275z" fill="#ed442e"/><path d="M2198.229 2473.795c2.657.938 5.32.901 7.988.044l-7.988-.044zM2251.327 2473.887c1.917.81 3.844.804 5.78.069l-5.78-.069z" fill="#e4e6e9"/><path d="M2250.129 2414.696l7.413 8.219a1.35 1.35 0 001.874.112l2.633-2.285a1.288 1.288 0 00.114-1.838l-7.413-8.219a1.35 1.35 0 00-1.874-.112l-2.633 2.286a1.287 1.287 0 00-.114 1.837zM2240.29 2419.85l7.413 8.219a1.35 1.35 0 001.874.112l2.633-2.285a1.29 1.29 0 00.115-1.838l-7.414-8.219a1.349 1.349 0 00-1.874-.112l-2.632 2.285a1.287 1.287 0 00-.115 1.838zM2230.451 2425.003l7.413 8.219a1.35 1.35 0 001.874.112l2.633-2.286a1.29 1.29 0 00.115-1.838l-7.413-8.219a1.349 1.349 0 00-1.874-.112l-2.632 2.286a1.287 1.287 0 00-.116 1.838zM2220.612 2430.157l7.413 8.219a1.35 1.35 0 001.874.112l2.633-2.285a1.288 1.288 0 00.114-1.838l-7.413-8.219a1.35 1.35 0 00-1.874-.112l-2.633 2.286a1.287 1.287 0 00-.114 1.837zM2209.522 2434.738l7.413 8.219a1.35 1.35 0 001.874.112l2.633-2.285a1.288 1.288 0 00.114-1.838l-7.413-8.219a1.349 1.349 0 00-1.874-.112l-2.633 2.285a1.289 1.289 0 00-.114 1.838z" fill="#fff"/></g><path d="M2543.593 1676.413s-142.419.904-205.281-8.136c-62.861-9.04-84.976-30.285-105.248-29.833-20.272.452-33.633 13.108-33.633 13.108s287.034 108.877 354.301 58.28l-10.139-33.419z" fill="#f4695b"/><g><path fill="#20288a" d="M1607.479 1736.158h1372.215v44.556H1607.479z"/><path fill="#daebff" d="M1607.479 1780.714h1372.215v44.556H1607.479z"/><path fill="#0e1c56" d="M2979.695 1736.158h308.181v44.556h-308.181z"/><path fill="#88a6ea" d="M2979.695 1780.714h308.181v44.556h-308.181z"/><path fill="#b8ccff" d="M1751.838 1825.271v628.563h-45.416v-628.563zM2979.695 1825.271v628.563h-45.416v-628.563z"/><path fill="#88a6ea" d="M1972.43 1825.27v628.564h-45.416V1825.27zM3200.287 1825.27v628.564h-45.416V1825.27z"/></g><g><path d="M1898.558 1735.813h245.323l-18.412-18.68a15.433 15.433 0 00-9.362-4.493l-94.887-10.06 72.731-138.46-18.01-106.167h-88.1l-40.4 244.741-33.806 8.402c-5.303 1.318-9.487 5.311-10.975 10.476l-4.102 14.241z" fill="#1b2868"/><path fill="#5a689b" d="M2004.942 1563.414l-27.502 138.46 43.78.706 72.731-138.46z"/><path d="M2301.111 1594.65h-450.364c-14.003 0-26.353-11.047-27.585-24.673l-30.277-334.94c-1.232-13.625 9.122-24.672 23.125-24.672h450.364c14.003 0 26.354 11.046 27.585 24.672l30.277 334.94c1.232 13.626-9.122 24.673-23.125 24.673z" fill="#5a689b"/><path d="M2318.491 1594.65h-450.364c-14.004 0-26.354-11.047-27.585-24.673l-30.277-334.94c-1.232-13.625 9.121-24.672 23.125-24.672h450.364c14.003 0 26.353 11.046 27.585 24.672l30.276 334.94c1.233 13.626-9.121 24.673-23.124 24.673z" fill="#1b2868"/><path fill="#fff" d="M1853.97 1577.297h475.783l-31.842-349.58h-475.784z"/><path opacity=".94" fill="#00113f" d="M1863.048 1570.149h456.325l-30.541-335.283h-456.324z"/></g><g><path d="M3145.435 1734.126h-245.323l18.412-18.68a15.43 15.43 0 019.362-4.493l94.887-10.061-72.731-138.46 18.01-106.167h88.1l40.4 244.741 33.805 8.402c5.303 1.318 9.487 5.311 10.975 10.476l4.103 14.242z" fill="#1b2868"/><path fill="#5a689b" d="M3039.051 1561.726l27.501 138.461-43.779.705-72.731-138.46z"/><path d="M2742.881 1592.962h450.364c14.003 0 26.353-11.047 27.585-24.673l30.277-334.94c1.232-13.625-9.122-24.672-23.125-24.672h-450.364c-14.003 0-26.354 11.047-27.585 24.672l-30.277 334.94c-1.231 13.626 9.123 24.673 23.125 24.673z" fill="#5a689b"/><path d="M2725.501 1592.962h450.364c14.004 0 26.354-11.047 27.585-24.673l30.277-334.94c1.232-13.625-9.121-24.672-23.125-24.672h-450.364c-14.003 0-26.353 11.047-27.585 24.672l-30.276 334.94c-1.233 13.626 9.121 24.673 23.124 24.673z" fill="#1b2868"/><path fill="#dbeeff" d="M3190.023 1575.609h-475.784l31.843-349.58h475.783z"/></g><path fill="#a1c6e5" d="M1989.338 1719.303h255.091v16.51h-255.091z"/><path d="M2648.027 1483.264c-19.812 19.437-61.384 34.99-61.384 34.99s3.637-41.022-6.188-72.976c-9.825-31.934-74.324-39.169-99.52-43.387-25.176-4.219-19.048-48.808-19.651-54.84-.623-6.032-50.373-10.842-29.497-25.311 8.158-5.638 13.683-14.489 17.381-23.182a79.275 79.275 0 001.869-4.711c4.26-11.808 5.325-22.137 5.325-22.137.723-7.964 1.768-15.12 3.054-21.546.402-1.971.804-3.864 1.246-5.697 11.433-47.98 36.871-51.095 36.871-51.095l61.263 16.578s54.833 30.278 91.222 80.447c36.408 50.168-15.19 79.56-15.19 79.56-23.651 90.086 33.01 93.871 13.199 113.307z" fill="#f87b67"/><path d="M2476.735 1240.011c-5.807 0-11.292 1.617-16.074 4.455a165.311 165.311 0 00-1.246 5.697c4.883-3.903 10.85-6.21 17.32-6.21 16.416 0 29.778 14.883 29.778 33.176 0 1.695-.12 3.351-.341 4.967a35.174 35.174 0 01-2.894 10.034c-4.923 10.783-14.969 18.175-26.543 18.175-10.95 0-20.535-6.623-25.699-16.46-.563 1.537-1.166 3.115-1.869 4.711 6.128 9.482 16.195 15.691 27.567 15.691 13.402 0 24.976-8.595 30.441-21.013a39.959 39.959 0 002.894-9.955c.302-1.991.462-4.061.462-6.15 0-20.461-15.15-37.118-33.796-37.118z" opacity=".92" fill="#e8564f"/><path d="M2605.269 1312.061l-6.369 7.077-91.724-25.902-3.898-1.104c1.427-3.095 2.411-6.466 2.894-10.034l3.898 1.183 95.199 28.78z" opacity=".92" fill="#e8564f"/><path d="M2490.316 1196.065s13.349 38.285 71.708 62.994c0 0 29.487 6.629 32.558 28.928 3.072 22.299 6.757 48.817 6.757 48.817s12.286-48.214 31.33-54.844c19.043-6.629-4.914-45.201-4.914-45.201l-137.439-40.694z" opacity=".54" fill="#e8564f"/><path d="M2506.749 1213.58s44.219 40.356 82.305 41.562c0 0 6.757-.365 7.679 6.598.921 6.962 5.884 46.032 5.884 46.032l8.552-44.192v-23.806l-104.42-26.194z" opacity=".69" fill="#dd4840"/><path d="M2629.243 1418.448s-4.961 54.163-42.54 63.553l.815 16.02s53.257-33.304 53.658-44.677c0 0-21.714-17.701-7.278-75.557 14.436-57.857 23.628-57.023 6.286-65.727 0 0 4.158 30.771-13.35 38.004l2.409 68.384z" opacity=".54" fill="#e8564f"/><path d="M2634.586 1442.244s-3.754 33.465-47.526 46.127l.305 18.086s64.348-34.503 57.898-45.954c-6.45-11.45-10.677-18.259-10.677-18.259z" opacity=".69" fill="#dd4840"/><path d="M2585.26 1499.267s54.473-18.897 51.403-48.858c0 0-3.806-12.988 8.063-2.26 8.468 7.654 125.856 70.104 146.281 217.868 21.184 153.25 0 345.786 0 345.786s-39.889 1.808-127.986-54.241c-88.096-56.049-139.698-67.801-139.698-67.801l5.529-94.017-2.304-92.661s25.801-113.454 52.984-169.503c0-.001 5.476-13.028 5.728-34.313z" fill="#ffb100"/><path d="M2778.719 1613.096s-16.837 335.911-175.893 309.603c0 0 64.867 34.925 89.896 52.673s72.023 35.828 98.285 36.431c0-.001 27.064-321.714-12.288-398.707z" opacity=".71" fill="#f99911"/><path d="M2526.548 1703.081s50.219 64.637 55.748 87.539-156.034-7.835-219.922-40.379c-63.888-32.545-84.16-34.955-84.16-34.955s-3.686-2.411-9.522-1.507c-5.836.904-36.858 6.328-80.781-17.176 0 0-16.893 3.616-29.179 3.315 0 0-9.215 25.011-36.551 20.19 0 0-7.679-2.109 0-7.232s16.893-18.08 20.886-25.313c0 0 1.843-3.616 3.072-3.616 0 0-18.122-23.806 1.229-30.435 19.351-6.629 54.98-15.067 62.352-10.848 7.372 4.219 77.095 35.257 90.61 37.667 13.515 2.41 120.097 36.461 226.218 22.75z" fill="#f87b67"/><path d="M2527.384 1820.703s77.488 17.981 97.76-27.22c20.272-45.201 37.877-193.459 37.877-193.459s-50.24 164.329-81.427 194.077l-52.792-.322-1.418 26.924z" fill="#f99911"/><path d="M2528.852 1795.743l-1.152 19.589s24.143 4.717 53.368-3.42c29.224-8.136 70.583-176.562 70.583-176.562s-29.732 100.427-64.44 148.038c-15.987 21.93-37.305 16.266-58.359 12.355z" fill="#ed8100"/><path d="M2487.34 1721.551s7.888 61.408-97.623 40.453c0 0 92.574 32.246 153.865 35.704-.001.001 2.224-81.643-56.242-76.157z" opacity=".54" fill="#e8564f"/><path d="M2494.09 1730.246s30.155 50.58 4.124 52.84c-26.031 2.26-37.485 0-37.485 0s50.156 12.856 62.595 12.643c12.439-.212-16.311-65.89-29.234-65.483z" opacity=".69" fill="#dd4840"/><path d="M2262.11 1714.607s3.896-9.943 29.927-1.129 46.275 24.918 46.275 24.918-61.438-29.44-76.202-23.789zM2158.733 1699.917s-5.145 1.808-9.522 6.554-18.199 13.81-26.031 13.572c0 0 23.65 5.413 35.553-20.126zM2146.139 1683.946l12.593-1.356s-2.15-12.506 1.689-13.862c3.839-1.356 31.636-7.081 31.636-7.081s.922-2.109-14.743-1.055c-15.665 1.055-29.599 1.996-31.176 11.529-1.576 9.534.001 11.825.001 11.825zM2158.733 1682.59l27.964-1.967-19.008.174a24.368 24.368 0 00-8.956 1.793z" fill="#e8564f"/><path d="M2693.486 1235.254s27.029 31.339 50.68-15.067c0 0-6.757 7.232-19.965 5.424-13.207-1.808-25.801-3.616-30.715 9.643z" fill="#273281"/><path d="M2594.583 1241.582c1.229 0 11.979 20.19 9.215 51.529s-2.457 43.694-2.457 43.694 8.729-35.758 35.016-26.518c26.287 9.24-5.836 45.524-5.836 45.524l2.023 18.394c.677 6.159 3.649 11.979 8.654 15.757 5.135 3.875 12.582 6.056 21.824-.724 0 0-12.343-12.958 0-37.969s47.665-93.916 18.793-118.375-87.232 8.688-87.232 8.688z" fill="#1b2868"/><path d="M2601.21 1257.567s65.63 12.764 90.74-6.357c0 0-3.455-17.539-19.811-24.771-16.356-7.232-73.249 23.521-73.249 23.521l2.32 7.607z" fill="#0d1b44"/><path d="M2498.554 1274.355l118.119 37.931s-4.423 3.016-6.938 6.775l-112.617-35.319s1.61-4.297 1.436-9.387z" fill="#b20d00"/><path d="M2466.789 1310.297c-18.637 0-33.8-16.65-33.8-37.115 0-20.464 15.163-37.114 33.8-37.114s33.8 16.65 33.8 37.114c0 20.466-15.163 37.115-33.8 37.115zm0-70.286c-16.422 0-29.781 14.881-29.781 33.172 0 18.292 13.36 33.172 29.781 33.172s29.781-14.881 29.781-33.172c0-18.291-13.36-33.172-29.781-33.172z" fill="#ed442e"/><g><g><path fill="#ed442e" d="M3347.852 306.637l73.126 124.26 73.126 124.26H3201.6l73.126-124.26z"/><g><g fill="#ffb100"><path d="M3361.805 412.548c-.721 13.109-1.439 26.219-2.166 39.328-.441 7.967-.885 15.935-1.348 23.901-.421 7.251-7.232 11.788-14.229 9.419-4.092-1.386-5.943-4.625-6.448-8.561-.454-3.545-.507-7.14-.709-10.715-.814-14.402-1.615-28.805-2.425-43.207-.212-3.779-.45-7.557-.649-11.337-.149-2.833.626-5.42 2.417-7.649 3.694-4.597 8.325-7.014 14.469-5.86 5.29.994 12.003 7.419 11.088 14.681zM3334.539 511.314c.069-7.531 5.793-12.973 13.578-12.908 7.274.06 13.171 5.932 13.113 13.056-.059 7.267-6.205 13.217-13.568 13.137-7.588-.083-13.192-5.756-13.123-13.285z"/></g></g></g></g><g><path d="M3575.721 800.162v247.057c0 26.099-21.56 47.251-48.163 47.251h-381.163c-1.206 0-2.391-.039-3.556-.138-8.962-.631-17.22-3.667-24.152-8.476-12.377-8.536-20.455-22.65-20.455-38.636V800.162c0-26.099 21.56-47.251 48.163-47.251h381.163c26.603 0 48.163 21.151 48.163 47.251z" fill="#b8dcff"/><path d="M3563.318 785.562v247.057c0 26.099-21.56 47.251-48.163 47.251h-381.163c-1.206 0-2.391-.039-3.556-.138-8.962-.631-17.22-3.667-24.152-8.476-12.377-8.536-20.455-22.65-20.455-38.637V785.562c0-26.099 21.56-47.251 48.163-47.251h381.163c26.603 0 48.163 21.152 48.163 47.251z" fill="#daebff"/><path d="M3563.318 785.562v247.057c0 26.099-21.56 47.251-48.163 47.251h-162.736l115.055-341.559h47.68c26.604 0 48.164 21.152 48.164 47.251z" opacity=".47" fill="#fff"/><g><path d="M3296.324 911.613s11.895 23.025-4.501 53.62 58.191 12.301 58.191 12.301-16.075-53.935 0-84.846c16.075-30.91-53.69 18.925-53.69 18.925z" fill="#ed6658"/><path d="M3250.397 842.854s-.369 61.821 37.568 76.33c20.79 7.951 36.603 1.116 54.065-10.409 14.403-9.506 31.531-33.203 38.061-54.403 9.537-30.956 7.941-66.032 7.941-66.032l-137.635 54.514z" fill="#f87b67"/><path d="M3445.74 1079.733h-316.223a39.436 39.436 0 01-19.772-6.939c2.763-20.802 12.403-83.788 32.899-125.537 24.855-50.625 51.602-56.774 51.602-56.774l-28.688 151.875s42.242-62.18 51.832-73.331c9.162-10.651 25.036-3.211 77.378-9.893 0 0 16.614 11.635 50.401-3.905 0 0 1.711-1.21 5.33 4.051 3.619 5.245 31.83 15.896 45.334 16.606 13.505.71 24.345 13.943 36.88 57.71 12.55 43.764 13.027 46.137 13.027 46.137zM3389.56 805.779c.059-.373.13-.748.183-1.12l-.248.011c-1.336-21.861-5.192-47.778-15.369-62.433-19.933-28.702-96.771-22.394-112.524 8.516-12.976 25.461-14.854 54.376-15.113 63.788a4.972 4.972 0 00-.129 2.771c1.85 7.769 3.628 15.836 6.399 23.659 3.389 9.566 8.915 12.307 19.666 10.207 6.085-1.188 12.475-3.465 17.747-6.819 10.795-6.867 20.85-6.338 32.802.671 7.277 4.267 16.289 7.076 25.222 10.069 8.474 2.839 15.699.166 20.396-5.374 10.926-12.885 18.027-27.71 20.681-42.207l.353-.546c-.019-.395-.043-.795-.066-1.193z"/><path d="M3261.364 821.172c-.013 8.082 1.653 13.755 9.278 16.123 5.759 1.788 14.205-2.247 18.748-9.604l-28.026-6.519zM3355.416 818.922l-36.88 8.506c5.415 8.355 15.012 12.701 23.012 10.716 10.242-2.54 13.943-8.915 13.868-19.222z" fill="#daebff"/><path d="M3386.89 818.922s11.081-9.817 12.045 7.531c.965 17.348-20.46 32.644-20.46 32.644l-1.723-32.96 10.138-7.215z" fill="#f87b67"/><g><path d="M3062.986 945.813c-1.242-4.866-1.594-9.759-.313-14.662 1.376-5.268 4.571-9.288 9.01-12.464 12.3-8.798 24.569-17.639 36.86-26.449 9.201-6.596 18.422-13.165 27.624-19.759 4.422-3.169 8.8-6.398 13.24-9.544 4.622-3.276 9.816-4.665 15.49-4.16 1.154.103 2.014-.14 2.932-.805 8.882-6.43 17.841-12.758 26.679-19.245 5.825-4.276 11.851-4.175 18.114-1.283.792.366 1.24.249 1.874-.211 6.16-4.46 12.317-8.924 18.527-13.317 3.626-2.565 8.751-2.266 12.937.455 3.339 2.171 5.379 5.429 7.619 8.503 1.67 2.291 3.355 4.651 4.503 7.21 1.666 3.714 1.762 7.627-.629 11.168-.857 1.27-2.155 2.319-3.421 3.246-5.744 4.202-11.542 8.335-17.343 12.461-.681.484-.952.883-.813 1.795.671 4.412.175 8.67-2.535 12.397-.94 1.292-2.153 2.467-3.451 3.422-5.589 4.112-11.253 8.124-16.894 12.167-3.664 2.626-7.352 5.22-10.984 7.888-.51.374-.966 1.039-1.104 1.644-1.356 5.934-4.505 10.652-9.542 14.228-8.583 6.092-17.104 12.267-25.659 18.397-11.823 8.471-23.656 16.929-35.48 25.399-5.32 3.812-10.672 7.583-15.93 11.476-6.642 4.916-13.863 5.525-21.522 2.972-6.197-2.065-11.387-5.719-15.969-10.22-6.24-6.131-10.838-13.27-13.477-21.576-.122-.376-.23-.755-.343-1.133zm9.507-.305c2.679 8.438 7.732 15.433 15.047 20.803 3.638 2.671 7.678 4.556 12.291 5.091 6.235.723 11.511-2.61 13.213-8.426.969-3.313.971-6.672.26-9.996-2.174-10.168-7.804-18.175-16.229-24.332-3.215-2.349-6.81-3.942-10.791-4.687-6.624-1.239-12.193 1.835-14.267 8.095-1.476 4.458-.805 8.903.476 13.452z"/><path d="M3072.493 945.508c-1.281-4.549-1.953-8.994-.475-13.452 2.074-6.26 7.644-9.335 14.267-8.095 3.981.745 7.576 2.338 10.791 4.687 8.424 6.157 14.055 14.164 16.229 24.332.71 3.324.709 6.684-.26 9.996-1.702 5.816-6.978 9.149-13.213 8.426-4.613-.535-8.653-2.42-12.291-5.091-7.316-5.369-12.368-12.365-15.048-20.803z" fill="#dbeeff"/></g><path d="M3167.644 847.742c.482-4.968 20.743-23.853 39.785-18.609 4.581 1.262 8.303 4.917 8.439 7.964.38 8.473-13.307 16.736-19.692 20.638-7.634 4.666-5.993-4.236-23.525-3.243-2.369.134-5.465-2.027-5.007-6.75z" fill="#f87b67"/></g></g><path d="M2526.548 1703.081s-5.375-8.588-44.691 0c0 0-6.758 2.561 0 11.601 6.757 9.04 49.759 56.556 32.251 83.875 0 0-10.136 5.924 20.272 4.116 30.408-1.808 50.524-1.697 51.226-13.012.001.001-26.346-56.597-59.058-86.58z" fill="#ffbc45"/><g><g><g fill="#0d1851"><path d="M2603.32 2098.332h25.74v361.833h-25.74z"/><path d="M2629.061 2461.123h-25.74a.968.968 0 01-.978-.959v-361.833a.97.97 0 01.978-.959h25.74c.54 0 .977.429.977.959v361.833c0 .53-.438.959-.977.959zm-24.762-1.917h23.785V2099.29h-23.785v359.916z"/></g></g><g><g fill="#1d2a7c"><path d="M2582.727 2263.672h66.924v123.738h-66.924z"/><path d="M2649.65 2388.368h-66.923a.968.968 0 01-.978-.959v-123.737c0-.53.438-.959.978-.959h66.923c.54 0 .977.429.977.959v123.737a.968.968 0 01-.977.959zm-65.944-1.918h64.968v-121.819h-64.968v121.819z"/></g></g><g><g fill="#1d2a7c"><path d="M2390.883 2472.304c29.964-19.542 113.152-68.205 230.086-66.857 111.245 1.282 190.244 47.102 220.527 66.857v-20.505c-31.854-19.869-110.694-63.164-220.527-64.389-115.464-1.289-198.447 44.656-230.086 64.389v20.505z"/><path d="M2390.883 2473.263a.98.98 0 01-.462-.114.954.954 0 01-.516-.845v-20.506c0-.327.171-.633.453-.81 38.91-24.265 119.575-64.563 225.919-64.563 1.568 0 3.126.008 4.705.027 98.94 1.103 174.813 35.704 221.038 64.536a.957.957 0 01.453.81v20.506c0 .354-.198.68-.516.845a.998.998 0 01-1.003-.046c-37.394-24.392-115.695-65.494-219.996-66.698-108.833-1.161-190.515 41.248-229.534 66.698a.991.991 0 01-.541.16zm.978-20.937v18.194c39.2-25.288 118.813-66.06 224.391-66.06 1.577 0 3.141.01 4.731.029 103.408 1.192 181.386 41.416 219.537 66.031v-18.194c-46.055-28.641-121.403-62.861-219.56-63.956a431.2 431.2 0 00-4.682-.025c-105.447 0-185.513 39.796-224.417 63.981z"/></g></g><g><g fill="#1d2a7c"><path d="M2812.682 2472.304c0-15.612 12.9-28.268 28.814-28.268 15.913 0 28.814 12.656 28.814 28.268 0 15.613-12.901 28.269-28.814 28.269s-28.814-12.656-28.814-28.269z"/><path d="M2841.496 2501.532c-16.427 0-29.792-13.112-29.792-29.228s13.365-29.226 29.792-29.226c16.428 0 29.792 13.11 29.792 29.226.001 16.117-13.364 29.228-29.792 29.228zm0-56.537c-15.35 0-27.838 12.251-27.838 27.309 0 15.06 12.487 27.311 27.838 27.311s27.838-12.251 27.838-27.311c0-15.058-12.487-27.309-27.838-27.309z"/></g></g><g><g fill="#1d2a7c"><path d="M2362.069 2472.304c0-15.612 12.9-28.268 28.814-28.268 15.913 0 28.814 12.656 28.814 28.268 0 15.613-12.902 28.269-28.814 28.269-15.914 0-28.814-12.656-28.814-28.269z"/><path d="M2390.883 2501.532c-16.427 0-29.792-13.112-29.792-29.228s13.365-29.226 29.792-29.226 29.792 13.11 29.792 29.226c0 16.117-13.364 29.228-29.792 29.228zm0-56.537c-15.348 0-27.836 12.251-27.836 27.309 0 15.06 12.488 27.311 27.836 27.311 15.348 0 27.836-12.251 27.836-27.311 0-15.058-12.488-27.309-27.836-27.309z"/></g></g><g><g fill="#1d2a7c"><path d="M2588.979 2472.304c0-14.744 12.182-26.695 27.21-26.695 15.027 0 27.21 11.952 27.21 26.695S2631.217 2499 2616.19 2499c-15.028 0-27.211-11.952-27.211-26.696z"/><path d="M2616.191 2499.959c-15.543 0-28.189-12.405-28.189-27.655 0-15.248 12.646-27.653 28.189-27.653s28.187 12.405 28.187 27.653c0 15.25-12.645 27.655-28.187 27.655zm0-53.391c-14.464 0-26.233 11.546-26.233 25.736 0 14.192 11.768 25.738 26.233 25.738 14.463 0 26.233-11.546 26.233-25.738-.001-14.189-11.77-25.736-26.233-25.736z"/></g></g><path d="M2431.935 2145.642h326.874a2.028 2.028 0 002.029-2.029v-57.95a2.028 2.028 0 00-2.029-2.029h-326.874a2.028 2.028 0 00-2.029 2.029v57.95a2.03 2.03 0 002.029 2.029zM2840.128 1887.19c0-52.767-1.382-104.859.671-157.387 1.357-34.762 1.094-69.769-4.082-104.249-2.275-15.16-12.628-84.418-43.285-71.363-5.915 2.519-8.562 10.74-9.563 14.61l4.073 318.388c0 13.845 9.446 25.068 21.097 25.068h9.993c11.651.001 21.096-11.222 21.096-25.067z" fill="#a1c6e5"/><path d="M2738.357 2151.777h-254.063c-4.994 0-9.042-3.971-9.042-8.871 0-4.899 4.048-8.871 9.042-8.871h254.063c25.134 0 48.764-9.602 66.538-27.039 17.771-17.435 27.559-40.619 27.559-65.277v-333.157c0-4.899 4.048-8.871 9.042-8.871s9.042 3.971 9.042 8.871v333.157c0 29.396-11.669 57.034-32.855 77.822-21.192 20.788-49.363 32.236-79.326 32.236z" fill="#1d2a7c"/></g><path d="M2490.316 1196.065s60.037 88.909 203.17 39.189c0 0-38.701-92.209-145.591-89.196 0 0-47.828 4.541-57.579 31.038 0-.001-5.291 12.41 0 18.969z" fill="#273281"/><path d="M2488.799 1193.371s76.911 53.333 204.687 41.882c0 0-99.897-77.745-205.521-45.803 0 0 76.395-78.905 193.021 24.13" fill="none" stroke="#0a1a44" stroke-width=".75" stroke-linecap="round" stroke-linejoin="round" stroke-miterlimit="10"/><path d="M2683.736 1304.588s-51.91 58.131-20.714 84.649c0 0-15.709-18.382 7.071-52.433-.001.001 13.107-23.148 13.643-32.216z" fill="#122051"/><path d="M2526.548 1703.081s45.843 63.281 28.565 75.033c-17.277 11.752-37.317 10.891-37.317 10.891s-1.385 6.942-3.688 9.552c-2.304 2.609-2.101 3.437 4.018 4.21 6.118.773 68.372 2.849 67.48-13.105l-.974-3.029 11.378-16.881a52.3 52.3 0 003.075-5.181l14.724-28.413s-26.905 33.821-87.261-33.077z" opacity=".33" fill="#f99911"/><path d="M2289.273 2078.248s-27.03-.753-39.93-4.972 82.379 105.859 74.362 338.9c0 0 16.16-3.781 16.279-5.455 0-.001 13.176-168.614-50.711-328.473z" opacity=".66" fill="#0b1e63"/><g><path d="M2946.76 478.148v558.89c0 26.1-21.56 47.251-48.163 47.251h-817.099c-26.583 0-48.163-21.151-48.163-47.251v-558.89c0-26.099 21.58-47.251 48.163-47.251h817.099c26.604 0 48.163 21.151 48.163 47.251z" fill="#8fc4ef"/><path d="M2933.716 464.227v558.89c0 26.099-21.56 47.251-48.163 47.251h-817.099c-26.583 0-48.163-21.151-48.163-47.251v-558.89c0-26.099 21.58-47.251 48.163-47.251h817.099c26.603 0 48.163 21.151 48.163 47.251z" fill="#b8dcff"/><g><path d="M2531.928 704.283c-.052-15.769-13.201-28.174-29.207-28.596-5.18-.131-10.359-.146-15.539-.218l-49.881.022h-169.314l-49.881-.022c-4.141.066-8.289.182-12.437.197-20.206.08-32.398 12.187-32.406 32.316-.015 60.679-.015 121.359.03 182.038.008 3.261.549 6.516.839 9.77 1.469 4.099 3.272 7.608 5.447 10.542 5.803 7.841 14.218 11.561 25.875 11.568 98.122.007 196.243.007 294.365 0 15.999-.007 25.875-7.018 31.322-22.117.289-2.228.831-4.463.831-6.69.045-62.938.156-125.874-.044-188.81zm-140.649 87.164c-1.276 10.447-7.228 18.084-15.412 24.126-2.456 1.813-3.443 3.538-3.354 6.501.2 6.741.171 13.504.037 20.253-.23 11.815-9.061 20.675-20.229 20.464-10.997-.204-19.331-8.896-19.598-20.471-.052-2.249-.178-4.514.015-6.749.883-10.134.49-19.198-9.625-25.968-5.654-3.793-8.511-10.884-9.12-18.149-7.094-24.658 17.876-50.888 44.211-46.44 23.221 3.925 38.96 26.013 33.075 46.433z" fill="#1b65f8"/><path d="M2487.182 675.469l-49.881.022-.2-3.494c.505-6.974.119-13.883-.846-20.836-2.82-20.195-13.676-37.987-28.881-50.684-18.485-15.456-43.388-23.391-68.069-18.994-45.354 8.081-73.864 44.823-71.148 91.722-.06.764-.112 1.522-.171 2.286l-49.881-.022c-1.462-32.571 6.115-62.579 25.63-89.297 32.376-44.336 89.544-64.552 143.357-50.575 18.448 4.79 35.285 13.41 49.673 24.898 26.907 21.462 45.228 52.919 49.428 87.958 1.078 9.012.848 18.003.989 27.016z" fill="#1b2868"/><path d="M2531.973 893.091c0 2.228-.542 4.463-.831 6.69-5.447 15.099-15.323 22.109-31.322 22.117-98.122.007-196.244.007-294.365 0-11.658-.007-20.073-3.727-25.875-11.568l172.646-234.84h85.076l-.2-3.494c.505-6.974.119-13.883-.846-20.836-2.82-20.195-13.676-37.987-28.881-50.684l29.393-39.982c26.907 21.462 45.228 52.919 49.428 87.958 1.076 9.013.846 18.004.987 27.016 5.18.073 10.359.087 15.539.218 16.006.422 29.155 12.828 29.207 28.596.199 62.937.088 125.873.044 188.809z" opacity=".6" fill="#a6c8ff"/><path d="M2391.282 791.447c-1.281 10.444-7.23 18.081-15.413 24.123-2.46 1.817-3.445 3.541-3.357 6.501.2 6.746.168 13.505.037 20.254-.23 11.82-9.056 20.678-20.228 20.468-11-.207-19.331-8.896-19.6-20.472-.052-2.25-.176-4.516.019-6.75.883-10.134.49-19.196-9.623-25.968-5.66-3.79-8.515-10.883-9.126-18.148 1.27-2.099 2.658-4.137 3.791-6.305 7.317-14 19.605-20.599 34.853-20.603 15.249-.004 27.537 6.596 34.861 20.59 1.135 2.169 2.518 4.21 3.786 6.31z" fill="#1b2868"/><path d="M2391.282 791.447c-1.268-2.1-2.651-4.141-3.786-6.309-7.324-13.994-19.613-20.594-34.861-20.59-15.248.004-27.537 6.602-34.853 20.603-1.133 2.168-2.521 4.206-3.791 6.305-7.094-24.661 17.878-50.889 44.216-46.439 23.221 3.923 38.956 26.012 33.075 46.43z" fill="#05103a"/></g><g><ellipse cx="2737.644" cy="861.217" rx="57.838" ry="56.743" fill="#ed442e"/><path fill="#fefefe" d="M2719.93 852.803l11.197 9.535 32.927-31.216 14.089 12.735-45.908 45.66-25.962-24.538z"/></g><path d="M2858.057 667.62h-237.124a3.76 3.76 0 01-3.749-3.749v-8.395a3.76 3.76 0 013.749-3.749h237.124a3.76 3.76 0 013.749 3.749v8.395a3.76 3.76 0 01-3.749 3.749zM2858.057 705.528h-237.124a3.76 3.76 0 01-3.749-3.749v-8.395a3.76 3.76 0 013.749-3.749h237.124a3.76 3.76 0 013.749 3.749v8.395a3.76 3.76 0 01-3.749 3.749zM2858.057 743.435h-237.124a3.76 3.76 0 01-3.749-3.749v-8.395a3.76 3.76 0 013.749-3.749h237.124a3.76 3.76 0 013.749 3.749v8.395a3.76 3.76 0 01-3.749 3.749z" fill="#1b65f8"/></g><g><path d="M1576.718 1420.635v122.054c0 7.266-6.002 13.155-13.409 13.155h-180.595c-7.406 0-13.409-5.889-13.409-13.155v-122.054c0-7.266 6.002-13.155 13.409-13.155h180.595c7.407 0 13.409 5.889 13.409 13.155z" fill="#b8dcff"/><path d="M1572.895 1416.163v122.054c0 7.266-6.002 13.155-13.409 13.155h-180.595c-7.406 0-13.409-5.889-13.409-13.155v-122.054c0-7.266 6.002-13.155 13.409-13.155h180.595c7.407 0 13.409 5.889 13.409 13.155z" fill="#daebff"/><path d="M1572.895 1416.163v122.054c0 7.266-6.002 13.155-13.409 13.155h-145.672l112.276-148.364h33.396c7.407 0 13.409 5.889 13.409 13.155z" opacity=".42" fill="#fff"/></g><g><path d="M3118.26 1266.435v54.122h55.166c0-29.891-24.699-54.122-55.166-54.122z" fill="#00d569"/><path d="M3114.138 1271.581c-30.468 0-55.167 24.231-55.167 54.122s24.699 54.122 55.167 54.122c16.185 0 30.741-6.837 40.834-17.73l-40.834-36.392v-54.122z" fill="#1b65f8"/><path d="M3118.635 1323.865l40.833 36.391c8.905-9.612 14.332-22.38 14.332-36.391h-55.165z" fill="#0e1c56"/></g><path d="M3147.061 1421.444h-78.797c-1.537 0-2.721-1.331-2.513-2.825l1.778-12.783c.171-1.233 1.245-2.152 2.513-2.152h78.096c1.483 0 2.65 1.243 2.528 2.694l-1.077 12.783c-.109 1.29-1.208 2.283-2.528 2.283zM3012.902 1280.058h-217.808c-4.249 0-7.522-1.283-6.948-2.724l4.916-12.323c.474-1.189 3.441-2.075 6.948-2.075h215.87c4.101 0 7.326 1.199 6.988 2.597l-2.978 12.323c-.3 1.245-3.339 2.202-6.988 2.202z" fill="#80b1ff"/><path d="M3007.809 1296.208h-201.105c-3.924 0-6.945-.37-6.415-.785l4.539-3.553c.438-.343 3.177-.598 6.415-.598h199.316c3.786 0 6.764.346 6.452.749l-2.75 3.552c-.277.359-3.083.635-6.452.635zM3004.665 1308.622H2803.56c-3.924 0-6.945-.37-6.415-.785l4.539-3.553c.438-.343 3.177-.598 6.415-.598h199.316c3.786 0 6.764.346 6.452.749l-2.75 3.552c-.277.359-3.083.635-6.452.635zM3000.735 1320.024H2799.63c-3.924 0-6.945-.37-6.415-.785l4.539-3.552c.438-.343 3.177-.598 6.415-.598h199.316c3.786 0 6.764.345 6.452.749l-2.75 3.552c-.277.358-3.083.634-6.452.634zM3161.271 1481.386h-119.017c-2.322 0-4.11-.37-3.796-.785l2.686-3.552c.259-.343 1.88-.598 3.796-.598h117.958c2.24 0 4.003.345 3.818.749l-1.627 3.552c-.163.358-1.824.634-3.818.634zM3158.945 1492.788h-119.017c-2.322 0-4.11-.37-3.796-.785l2.686-3.553c.259-.343 1.88-.598 3.796-.598h117.958c2.24 0 4.003.345 3.819.749l-1.627 3.552c-.164.359-1.825.635-3.819.635zM3160.323 1506.309h-41.876c-.817 0-1.446-.37-1.336-.785l.945-3.552c.091-.343.662-.598 1.336-.598h41.503c.788 0 1.408.346 1.344.749l-.573 3.552c-.057.358-.642.634-1.343.634z" opacity=".6" fill="#80b1ff"/><path d="M3146.199 1431.668h-79.357c-1.537 0-2.721-1.331-2.513-2.825l.01-.073c.172-1.233 1.245-2.152 2.513-2.152h79.353c1.483 0 2.65 1.243 2.528 2.694l-.006.073c-.108 1.29-1.207 2.283-2.528 2.283zM3145.664 1438.028h-79.706c-1.537 0-2.721-1.331-2.513-2.825l.016-.115c.172-1.233 1.245-2.152 2.513-2.152h79.7c1.483 0 2.65 1.243 2.528 2.694l-.01.115c-.109 1.29-1.209 2.283-2.528 2.283zM3001.534 1347.111h-79.357c-1.537 0-2.721-1.331-2.513-2.825l.01-.073c.171-1.233 1.245-2.152 2.513-2.152h79.353c1.483 0 2.65 1.243 2.528 2.694l-.006.073c-.109 1.29-1.208 2.283-2.528 2.283zM3000.998 1353.472h-79.706c-1.537 0-2.721-1.331-2.513-2.825l.016-.115c.172-1.233 1.245-2.152 2.513-2.152h79.7c1.483 0 2.65 1.243 2.528 2.694l-.01.115c-.109 1.289-1.208 2.283-2.528 2.283z" fill="#80b1ff"/><path fill="#1b65f8" d="M2776.021 1515.578h-13.297l10.574-102.746h13.188z"/><path fill="#1b2868" d="M2792.819 1515.578h-13.298l6.54-64.386h13.229z"/><path fill="#00d569" d="M2811.015 1515.578h-13.297l8.302-82.918h13.209z"/><path fill="#3c3c3b" d="M2751.336 1524.159l14.78-142.461h-1.731l-14.8 142.461-.089.859-.09.859h147.793l.159-1.718z"/><path fill="#1b65f8" d="M2870.504 1515.578h-13.298l5.115-53.625h13.241z"/><path fill="#1b2868" d="M2854.056 1515.578h-13.297l8.018-82.918h13.209z"/><path fill="#00d569" d="M2888 1515.578h-13.297l6.795-72.303h13.221z"/><path fill="#1b65f8" d="M2925.179 1462.973h-17.191l1.537-16.758h17.168z"/><path fill="#1b2868" d="M2922.716 1490.245h-17.229l1.544-16.832h17.205z"/><path fill="#00d569" d="M2920.241 1517.637h-17.266l1.55-16.906h17.243z"/><path d="M2971.724 1451.192h-34.355c-1.489 0-2.657-1.252-2.527-2.707.115-1.285 1.212-2.271 2.527-2.271h34.355c1.486 0 2.653 1.247 2.528 2.699-.112 1.289-1.21 2.279-2.528 2.279zM2970.896 1460.759h-34.385c-1.489 0-2.657-1.252-2.527-2.707l.203-2.265c.115-1.285 1.212-2.271 2.527-2.271h34.378c1.486 0 2.653 1.247 2.528 2.699l-.196 2.265c-.111 1.289-1.21 2.279-2.528 2.279zM2969.369 1478.412h-34.441c-1.489 0-2.657-1.252-2.527-2.707l.002-.022c.115-1.285 1.212-2.271 2.527-2.271h34.441c1.486 0 2.653 1.247 2.528 2.699l-.002.022c-.112 1.289-1.21 2.279-2.528 2.279zM2968.538 1488.021h-34.471c-1.489 0-2.657-1.252-2.527-2.707l.206-2.297c.115-1.285 1.212-2.271 2.527-2.271h34.464c1.486 0 2.653 1.247 2.528 2.699l-.199 2.297c-.112 1.289-1.21 2.279-2.528 2.279zM2967.004 1505.752h-34.528c-1.489 0-2.657-1.252-2.527-2.707l.004-.044c.115-1.285 1.212-2.271 2.527-2.271h34.527c1.486 0 2.653 1.247 2.528 2.699l-.004.044c-.111 1.289-1.209 2.279-2.527 2.279zM2966.169 1515.403h-34.558c-1.489 0-2.657-1.252-2.527-2.707l.209-2.329c.115-1.285 1.212-2.271 2.527-2.271h34.551c1.486 0 2.653 1.247 2.528 2.699l-.201 2.329c-.113 1.289-1.211 2.279-2.529 2.279z" fill="#80b1ff"/><g><path d="M1887.04 1285.498a2.418 2.418 0 01-1.516-.556l-10.577-8.652c-.914-.748-1.114-1.961-.444-2.711l7.821-8.752c.676-.756 1.965-.756 2.881 0 .915.755 1.108 1.978.432 2.732l-6.61 7.376 8.926 7.317c.907.744 1.097 1.947.426 2.689-.335.371-.822.557-1.339.557zM1910.1 1285.498c-.516 0-1.06-.185-1.51-.556-.9-.742-1.079-1.946-.401-2.689l6.677-7.317-8.879-7.376c-.908-.754-1.09-1.977-.407-2.732.683-.756 1.973-.756 2.881 0l10.512 8.752c.9.749 1.074 1.962.389 2.711l-7.917 8.652c-.34.369-.829.555-1.345.555zM1894.92 1286.975c-.23 0-.47-.038-.711-.117-1.103-.359-1.812-1.449-1.582-2.434l4.387-18.895c.233-1.003 1.326-1.52 2.437-1.152 1.113.367 1.824 1.477 1.589 2.478l-4.419 18.872c-.179.771-.879 1.248-1.701 1.248zM1931.546 1285.229c.186 1.343-.819 2.43-2.246 2.43s-2.737-1.087-2.926-2.43c-.19-1.344.816-2.435 2.245-2.435 1.43 0 2.741 1.091 2.927 2.435zM1942.251 1285.229c.18 1.343-.831 2.43-2.258 2.43s-2.731-1.087-2.914-2.43c-.183-1.344.827-2.435 2.257-2.435 1.43 0 2.735 1.091 2.915 2.435zM1952.955 1285.229c.173 1.343-.843 2.43-2.27 2.43s-2.726-1.087-2.902-2.43c-.177-1.344.839-2.435 2.269-2.435s2.73 1.091 2.903 2.435zM2158.725 1304.49h-273.201c-1.105 0-2.136-.836-2.303-1.868-.167-1.033.594-1.871 1.702-1.871h273.669c1.107 0 2.034.838 2.07 1.871.035 1.032-.832 1.868-1.937 1.868zM2196.346 1304.49h-21.053c-1.105 0-2.025-.836-2.056-1.868-.03-1.033.843-1.871 1.95-1.871h21.089c1.107 0 2.019.838 2.038 1.871.019 1.032-.863 1.868-1.968 1.868zM2235.043 1304.49h-26.873c-1.105 0-2.013-.836-2.027-1.868-.015-1.033.871-1.871 1.978-1.871h26.919c1.108 0 2.004.838 2.004 1.871 0 1.032-.895 1.868-2.001 1.868z" fill="#00d569"/><path d="M2058.083 1324.353h-169.361c-1.095 0-2.116-.821-2.28-1.834-.164-1.014.592-1.837 1.689-1.837h169.649c1.097 0 2.054.823 2.137 1.837.082 1.014-.738 1.834-1.834 1.834zM2113.637 1324.353h-30.356c-1.095 0-2.042-.821-2.115-1.834-.073-1.014.757-1.837 1.854-1.837h30.407c1.097 0 2.032.823 2.089 1.837.057 1.014-.784 1.834-1.879 1.834zM2114.279 1335.612h-81.98c-1.089 0-2.051-.812-2.147-1.815-.096-1.003.71-1.818 1.801-1.818h82.119c1.091 0 2.021.814 2.078 1.818.056 1.003-.782 1.815-1.871 1.815zM2021.036 1335.612h-16.521c-1.089 0-2.061-.812-2.17-1.815-.109-1.003.687-1.818 1.778-1.818h16.549c1.091 0 2.057.814 2.157 1.818.098 1.003-.704 1.815-1.793 1.815zM1991.391 1335.612h-16.521c-1.089 0-2.072-.812-2.195-1.815-.123-1.003.662-1.818 1.753-1.818h16.549c1.091 0 2.068.814 2.182 1.818.112 1.003-.679 1.815-1.768 1.815zM1961.747 1335.612h-16.521c-1.089 0-2.083-.812-2.22-1.815s.637-1.818 1.728-1.818h16.549c1.091 0 2.079.814 2.207 1.818.126 1.003-.654 1.815-1.743 1.815zM1932.102 1335.612h-16.521c-1.089 0-2.095-.812-2.245-1.815-.151-1.003.612-1.818 1.703-1.818h16.549c1.091 0 2.09.814 2.232 1.818.14 1.003-.629 1.815-1.718 1.815z" fill="#1b65f8"/><path d="M2171.48 1349.144h-253.879c-1.083 0-2.081-.802-2.229-1.792-.149-.991.609-1.795 1.694-1.795h254.305c1.084 0 1.987.804 2.017 1.795.029.99-.825 1.792-1.908 1.792z" fill="#ed442e"/><path d="M1896.496 1335.612h-5.961c-1.089 0-2.104-.812-2.266-1.815-.162-1.003.59-1.818 1.682-1.818h5.971c1.091 0 2.104.814 2.262 1.818.156 1.003-.599 1.815-1.688 1.815zM1898.637 1349.144h-5.923c-1.083 0-2.09-.802-2.25-1.792-.16-.991.589-1.795 1.673-1.795h5.934c1.084 0 2.09.804 2.246 1.795.154.99-.598 1.792-1.68 1.792zM1900.751 1362.507h-5.886c-1.076 0-2.076-.792-2.234-1.77-.158-.979.587-1.773 1.664-1.773h5.896c1.078 0 2.076.794 2.23 1.773.154.978-.594 1.77-1.67 1.77zM1902.84 1375.705h-5.85c-1.069 0-2.063-.782-2.219-1.748-.156-.966.585-1.751 1.656-1.751h5.86c1.071 0 2.062.784 2.214 1.751.151.965-.592 1.748-1.661 1.748zM2221.922 1349.144h-35.054c-1.083 0-1.98-.802-2.004-1.792-.024-.991.835-1.795 1.92-1.795h35.113c1.085 0 1.968.804 1.974 1.795.006.99-.866 1.792-1.949 1.792z" fill="#1b65f8"/><path d="M1988.802 1362.507h-69.806c-1.076 0-2.067-.792-2.214-1.77-.147-.979.607-1.773 1.684-1.773h69.923c1.078 0 2.043.794 2.157 1.773.112.978-.668 1.77-1.744 1.77zM1990.381 1376.027h-69.362c-1.069 0-2.053-.782-2.199-1.747-.145-.966.605-1.75 1.675-1.75h69.477c1.071 0 2.029.784 2.141 1.75.113.965-.663 1.747-1.732 1.747zM1991.941 1389.375h-68.924c-1.062 0-2.039-.772-2.183-1.725-.144-.954.602-1.728 1.666-1.728h69.037c1.064 0 2.016.774 2.127 1.728.11.953-.661 1.725-1.723 1.725zM1993.48 1402.555h-68.491c-1.055 0-2.026-.762-2.168-1.703-.142-.942.6-1.706 1.657-1.706h68.603c1.057 0 2.003.764 2.112 1.706.11.94-.658 1.703-1.713 1.703z" fill="#ed442e"/><path d="M2178.067 1402.555h-139.399c-1.055 0-1.984-.762-2.075-1.703-.091-.942.693-1.706 1.75-1.706h139.627c1.057 0 1.935.764 1.961 1.706.026.94-.809 1.703-1.864 1.703zM2177.694 1389.375h-57.116c-1.062 0-1.967-.772-2.021-1.725-.054-.954.765-1.728 1.829-1.728h57.21c1.064 0 1.948.774 1.974 1.728.026.953-.814 1.725-1.876 1.725zM2177.307 1375.705h-22.822c-1.069 0-1.967-.782-2.006-1.748-.039-.966.798-1.751 1.869-1.751h22.86c1.071 0 1.96.784 1.987 1.751.027.965-.819 1.748-1.888 1.748z" fill="#ffd600"/><path d="M2069.867 1426.748h-169.361c-1.095 0-2.116-.821-2.28-1.834-.164-1.014.592-1.837 1.689-1.837h169.649c1.097 0 2.053.823 2.136 1.837.083 1.013-.738 1.834-1.833 1.834zM2125.42 1426.748h-30.356c-1.095 0-2.042-.821-2.115-1.834-.073-1.014.757-1.837 1.854-1.837h30.407c1.097 0 2.032.823 2.089 1.837.058 1.013-.784 1.834-1.879 1.834zM2126.063 1438.007h-81.98c-1.089 0-2.051-.812-2.147-1.815-.096-1.003.71-1.818 1.801-1.818h82.118c1.091 0 2.021.814 2.078 1.818.057 1.003-.781 1.815-1.87 1.815zM2032.819 1438.007h-16.521c-1.089 0-2.061-.812-2.17-1.815-.109-1.003.687-1.818 1.778-1.818h16.549c1.091 0 2.057.814 2.157 1.818.099 1.003-.703 1.815-1.793 1.815zM2003.174 1438.007h-16.521c-1.089 0-2.072-.812-2.195-1.815-.123-1.003.662-1.818 1.753-1.818h16.549c1.091 0 2.068.814 2.182 1.818.113 1.003-.678 1.815-1.768 1.815zM1973.53 1438.007h-16.521c-1.089 0-2.083-.812-2.22-1.815s.637-1.818 1.728-1.818h16.549c1.091 0 2.079.814 2.207 1.818.127 1.003-.653 1.815-1.743 1.815zM1943.885 1438.007h-16.521c-1.089 0-2.095-.812-2.245-1.815-.151-1.003.611-1.818 1.703-1.818h16.549c1.091 0 2.09.814 2.232 1.818.141 1.003-.628 1.815-1.718 1.815z" fill="#b8dcff"/><path d="M2183.264 1451.539h-253.879c-1.083 0-2.081-.802-2.229-1.792-.149-.991.609-1.795 1.694-1.795h254.304c1.084 0 1.987.804 2.017 1.795.029.99-.824 1.792-1.907 1.792z" fill="#1b65f8"/><path d="M1908.279 1438.007h-5.961c-1.089 0-2.104-.812-2.266-1.815-.162-1.003.59-1.818 1.682-1.818h5.971c1.091 0 2.104.814 2.262 1.818.157 1.003-.598 1.815-1.688 1.815zM1910.421 1451.539h-5.924c-1.082 0-2.09-.802-2.25-1.792-.161-.991.589-1.795 1.673-1.795h5.933c1.084 0 2.09.804 2.246 1.795.156.99-.596 1.792-1.678 1.792zM1912.535 1464.902h-5.886c-1.076 0-2.076-.792-2.234-1.77-.158-.979.587-1.772 1.664-1.772h5.896c1.078 0 2.076.794 2.23 1.772.153.978-.594 1.77-1.67 1.77zM1914.623 1478.099h-5.85c-1.069 0-2.062-.782-2.219-1.748-.156-.966.585-1.751 1.656-1.751h5.86c1.071 0 2.062.784 2.214 1.751.152.966-.592 1.748-1.661 1.748z" fill="#b8dcff"/><path d="M2233.705 1451.539h-35.054c-1.083 0-1.98-.802-2.004-1.792-.024-.991.835-1.795 1.92-1.795h35.113c1.085 0 1.969.804 1.975 1.795.006.99-.866 1.792-1.95 1.792zM2000.586 1464.902h-69.807c-1.076 0-2.067-.792-2.214-1.77-.147-.979.607-1.772 1.684-1.772h69.923c1.078 0 2.043.794 2.157 1.772.113.978-.667 1.77-1.743 1.77zM2002.165 1478.422h-69.362c-1.069 0-2.053-.782-2.199-1.747-.145-.966.605-1.75 1.675-1.75h69.477c1.071 0 2.03.784 2.141 1.75.113.965-.663 1.747-1.732 1.747zM2003.724 1491.769H1934.8c-1.062 0-2.039-.772-2.183-1.725-.144-.954.602-1.728 1.666-1.728h69.037c1.064 0 2.016.774 2.127 1.728.111.953-.661 1.725-1.723 1.725zM2005.264 1504.949h-68.491c-1.056 0-2.026-.762-2.168-1.703-.142-.942.6-1.706 1.657-1.706h68.603c1.057 0 2.003.764 2.112 1.706.11.941-.658 1.703-1.713 1.703z" fill="#1b65f8"/><path d="M2189.85 1504.949h-139.399c-1.055 0-1.984-.762-2.075-1.703-.09-.942.693-1.706 1.75-1.706h139.627c1.057 0 1.935.764 1.961 1.706.027.941-.808 1.703-1.864 1.703zM2189.478 1491.769h-57.116c-1.062 0-1.967-.772-2.021-1.725-.054-.954.765-1.728 1.829-1.728h57.21c1.064 0 1.948.774 1.974 1.728.026.953-.814 1.725-1.876 1.725zM2189.091 1478.099h-22.822c-1.069 0-1.967-.782-2.006-1.748-.039-.966.798-1.751 1.869-1.751h22.86c1.071 0 1.96.784 1.987 1.751.026.966-.819 1.748-1.888 1.748z" fill="#00d569"/></g><g><g opacity=".64"><g><g><path d="M1506.635 1942.281c-.099-8.164-.573-16.619-4.365-23.886-.77-1.476-1.798-2.99-3.402-3.511-3.166-1.03-5.961 2.279-7.39 5.236-9.334 19.32-7.278 41.86-11.338 62.866-5.794 29.98-23.832 56.015-38.803 82.762-14.97 26.748-27.451 57.375-20.742 87.171.887 3.94 2.111 7.887 1.902 11.917-.172 3.315-1.308 6.499-2.433 9.63l-13.563 37.754-.272-117.061c-.015-6.445.02-13.126 2.769-18.979 2.263-4.818 6.181-8.667 9.237-13.044 10.4-14.893 10.051-34.347 9.311-52.385l-6.419-156.382c-.193-4.715-.431-9.601-2.622-13.801-2.191-4.201-6.921-7.521-11.635-6.583-4.146.825-7 4.537-8.966 8.211-9.707 18.135-7.077 39.873-7.249 60.355-.439 52.324-20.471 106.759-.989 155.469 2.943 7.357 6.759 14.435 8.562 22.138 1.542 6.589 1.557 13.417 1.565 20.177l.097 84.763c-23.476-100.239-60.848-197.336-110.764-287.78-1.283-2.325-3.6-5.038-6.084-4.014-1.519.627-2.138 2.389-2.465 3.973-1.658 8.044-.143 16.391 2.047 24.312 9.378 33.918 30.781 63.527 41.885 96.939 5.74 17.272 8.654 35.348 14.318 52.645 5.664 17.296 14.588 34.337 29.473 45.144 3.251 2.361 6.813 4.453 9.286 7.593 2.387 3.031 3.562 6.792 4.643 10.472a456.407 456.407 0 0116.235 83.534c.588 5.933.98 11.833 1.236 17.714h-51.8c-4.015 36.241 18.385 79.139 21.089 84.16-11.306.952-22.674 1.635-33.84 2.658-20.519 1.878-41.049 3.669-61.605 5.117l-2.094.147v1.814c26.011-.499 52.021 1.436 78.026.724 5.753-.158 11.505-.326 17.257-.508 8.856-.28 17.589-.186 26.462-.35 7.326-.135 15.751-3.342 17.47-10.33.032-.129.047-.26.074-.389 17.025-27.46 20.041-83.043 20.041-83.043h-22.229c3.571-24.076 11.076-47.59 22.344-69.266 9.285 1.953 16.456-7.665 20.712-15.992 33.051-64.674 55.901-135.748 55.028-208.091z" fill="#c7d0e0"/></g></g></g><g><g><g><g><path d="M1410.174 1868.7a9.708 9.708 0 00-.164-.396c-9.449-21.812-22.788 9.815-23.344 29.446-.556 19.63-2.779 45.805-19.453 67.071-16.675 21.266-38.907 65.981-51.135 90.519-12.228 24.538 4.447 49.077 4.447 49.077s-13.771 29.866-21.121 49.691c0-36.958.036-73.917.001-110.876-.007-7.098-1.993-17.743 2.083-23.038 3.21-4.169 7.783-7.185 10.852-11.738 8.064-11.963 12.038-26.603 11.338-40.908-1.293-26.719-4.265-106.877-7.044-151.592-.473-7.621.266-26.603-7.39-31.988-18.669-13.133-25.49 19.132-27.11 29.495-2.956 18.896.437 38.137-2.017 57.145-2.063 15.978-4.334 31.926-6.691 47.864-4.71 31.843-4.875 70.624 14.51 98.418.752 1.079 1.91 2.161 2.507 3.319 3.67 7.121 1.18 19.41 1.18 27.416V2122.433c0 1.532-.356 3.538 0 5.043-4.17-17.618-11.976-43.105-18.402-63.201-.87-5.688-4.613-16.866-10.328-31.444-7.59-19.358-91.146-201.074-102.703-193.025-13.899 9.678 7.985 47.857 12.489 56.853 30.57 61.073 46.133 88.338 48.356 113.423 1.245 14.033 11.362 26.752 20.878 36.596 4.933 5.103 10.295 9.872 16.072 14.045 4.056 2.93 12.365 5.545 13.469 10.404 3.186 14.031 5.651 28.215 9.149 42.179 3.174 12.669 11.116 26.105 11.083 39.094 0 31.083-.062 62.166-.062 93.249h7.781v-67.616s20.813-56.918 26.283-70.158c9 4.155 20.449-5.187 23.899-11.977 21.195-41.716 44.656-82.815 54.12-128.803 3.932-19.104 6.877-38.488 8.345-57.93.963-12.782 2.784-28.137-1.878-40.465z" fill="#00d569"/></g></g></g></g><g><g><g><g><path d="M1349.653 2224.409a345.62 345.62 0 01-.872 9.615c-.074.769-.163 1.566-.251 2.393-.089.928-.192 1.885-.31 2.871a598.721 598.721 0 01-.739 6.12c-.207 1.61-.428 3.263-.665 4.96a642.15 642.15 0 01-1.316 8.774c-.103.624-.207 1.262-.325 1.9-.104.609-.207 1.233-.31 1.856-.104.609-.207 1.233-.325 1.871a217.778 217.778 0 01-.902 4.902c-.162.913-.355 1.827-.532 2.755l-.665 3.22c-.162.754-.325 1.522-.488 2.277-.325 1.523-.68 3.06-1.035 4.583-.177.768-.355 1.538-.547 2.306-.429 1.755-.872 3.51-1.33 5.264-.355 1.291-.71 2.596-1.064 3.872v.029c-.37 1.291-.739 2.581-1.138 3.872-.074.232-.148.449-.207.681-.458 1.479-.931 2.93-1.404 4.38-.251.74-.503 1.479-.754 2.205-.503 1.45-1.02 2.886-1.552 4.307-.547 1.406-1.094 2.813-1.671 4.191a86.405 86.405 0 01-.857 2.03 99.75 99.75 0 01-2.616 5.627c-.37.725-.739 1.436-1.109 2.146-.325.609-.665 1.218-1.005 1.827a42.147 42.147 0 01-1.02 1.769c-.34.594-.695 1.16-1.05 1.726s-.71 1.117-1.079 1.667h-52.626s-31.723-57.053-28.131-106.405c.148-2.103 1.907-3.741 4.065-3.741h99.752c2.334.002 4.167 1.887 4.078 4.15z" fill="#daebff"/></g></g></g></g><g><g><g><path d="M1295.298 2021.58l5.667-230.093-4.189 230.123c-.007.4-.344.719-.752.712s-.733-.337-.726-.738v-.004z" fill="#abf4e6"/></g></g></g><g><g><g><path d="M1167.183 1850.948l3.14 6.601 3.343 6.851 6.741 13.684 13.516 27.354 26.912 54.767c8.915 18.282 17.78 36.589 26.458 54.981 4.336 9.198 8.638 18.411 12.809 27.682 2.075 4.64 4.136 9.286 6.102 13.972a229.11 229.11 0 012.855 7.065c.913 2.369 1.771 4.763 2.392 7.224-.636-2.457-1.508-4.845-2.435-7.208-.918-2.367-1.901-4.71-2.897-7.046-1.994-4.673-4.082-9.307-6.185-13.933-4.226-9.245-8.584-18.431-12.975-27.602-8.789-18.339-17.764-36.591-26.789-54.819l-27.243-54.605-13.682-27.275-6.825-13.646-3.388-6.838-1.676-3.432-.824-1.731-.407-.872a8.1 8.1 0 01-.419-1.173.66.66 0 01.472-.813.678.678 0 01.789.358l.216.454z" fill="#abf4e6"/></g></g></g><g><g><g><path d="M1404.964 1872.731c.057.005.104-.137.082-.077l-.044.182c-.033.117-.053.29-.08.432l-.128.934-.204 1.92-.356 3.872-.72 7.758a571.428 571.428 0 01-1.723 15.495 518.523 518.523 0 01-4.812 30.81c-3.834 20.437-8.918 40.653-15.399 60.434-6.477 19.778-14.357 39.123-23.802 57.714-9.423 18.597-20.498 36.392-33.164 53.023 12.567-16.703 23.529-34.551 32.833-53.184 9.325-18.626 17.079-37.99 23.429-57.773 6.353-19.786 11.307-39.992 15.012-60.408a517.732 517.732 0 004.619-30.768 569.193 569.193 0 001.627-15.469l.673-7.752.333-3.884.195-1.953.131-.995c.033-.177.046-.328.095-.526l.073-.291c.018-.097.161-.377.284-.52a.75.75 0 011.045 0c.29.284.29.743.001 1.026z" fill="#abf4e6"/></g></g></g><g><g><g><path d="M1289.36 1813.053c2.47 9.73 4.673 19.505 6.515 29.358.927 4.923 1.745 9.868 2.371 14.837.609 4.966 1.135 9.964.99 14.971.021-5.007-.626-9.981-1.356-14.922-.747-4.943-1.684-9.856-2.73-14.747-2.079-9.781-4.521-19.497-7.217-29.12l-.003-.009a.725.725 0 01.517-.892c.393-.106.8.121.909.507l.004.017z" fill="#abf4e6"/></g></g></g><g><g><g><path d="M1287.414 1882.596c.046.142.061.266.096.427l.218.582c.133.385.34.795.506 1.191l1.109 2.413a137.87 137.87 0 012.171 4.887 91.072 91.072 0 013.579 10.073c1.014 3.415 1.708 6.915 2.191 10.431.527 3.516.579 7.076.532 10.611-.077-3.538-.252-7.078-.898-10.558-.603-3.479-1.411-6.925-2.534-10.275a90.008 90.008 0 00-3.889-9.849 136.26 136.26 0 00-2.322-4.774l-1.2-2.39c-.192-.415-.402-.793-.578-1.24l-.27-.657a7.665 7.665 0 01-.19-.869.695.695 0 01.578-.801.708.708 0 01.793.473l.108.325z" fill="#abf4e6"/></g></g></g><g><g><g><path d="M1284.771 1951.826c2.862 1.964 4.477 4.634 5.954 7.367a43.904 43.904 0 013.297 8.599c.448 1.464.722 2.97 1.09 4.45.26 1.503.556 2.998.778 4.503.182 1.511.404 3.017.552 4.529l.362 4.543-.545-4.522c-.209-1.503-.491-2.995-.733-4.491-.282-1.49-.637-2.965-.955-4.445-.425-1.454-.756-2.934-1.257-4.361a43.077 43.077 0 00-3.565-8.291c-.72-1.318-1.591-2.54-2.507-3.708-.939-1.104-2.048-2.249-3.163-2.893l-.106-.061a.719.719 0 01-.262-.994.747.747 0 011.06-.225z" fill="#abf4e6"/></g></g></g><g><g><g><path d="M1315.61 1865.119c-2.18 1.201-4.284 2.761-6.179 4.462a33.747 33.747 0 00-5.066 5.744c-.765 1.03-1.366 2.159-2.008 3.268-.519 1.163-1.147 2.295-1.514 3.523-.94 2.395-1.318 4.952-1.598 7.505.157-2.559.413-5.154 1.247-7.618.313-1.263.891-2.435 1.365-3.646.597-1.156 1.157-2.339 1.887-3.426a34.548 34.548 0 014.915-6.132c1.888-1.853 3.91-3.524 6.237-4.951a.748.748 0 011.019.231.719.719 0 01-.262 1.016l-.043.024z" fill="#abf4e6"/></g></g></g><g><g><g><path d="M1312.505 1931.381c-.295-.104-.89-.17-1.37-.073a4.792 4.792 0 00-1.506.47c-.508.191-.943.558-1.419.842-.418.378-.875.711-1.269 1.125-1.626 1.611-2.874 3.612-3.984 5.654-.544 1.032-1.09 2.067-1.534 3.151-.48 1.068-.949 2.142-1.336 3.249-.868 2.181-1.534 4.432-2.256 6.668.603-2.267 1.151-4.555 1.907-6.787.33-1.131.745-2.234 1.172-3.336.39-1.116.887-2.191 1.385-3.268 1.024-2.136 2.183-4.252 3.836-6.073.398-.464.882-.864 1.324-1.299.522-.357.99-.786 1.589-1.057a6.06 6.06 0 011.86-.678c.686-.132 1.329-.177 2.171.075.39.117.61.522.491.905a.742.742 0 01-.922.482l-.031-.01-.108-.04z" fill="#abf4e6"/></g></g></g><g><g><g><path d="M1174.298 1882.03c3.74 3.355 6.729 7.144 9.656 11.029a159.598 159.598 0 018.101 12.046c2.555 4.102 4.902 8.321 7.213 12.553l3.333 6.416 3.186 6.485-3.351-6.403-3.493-6.327c-2.416-4.169-4.865-8.318-7.516-12.343a159.014 159.014 0 00-8.36-11.776c-2.968-3.753-6.127-7.508-9.694-10.55l-.058-.05c-.308-.262-.34-.72-.073-1.022a.75.75 0 011.056-.058z" fill="#abf4e6"/></g></g></g><g><g><g><path d="M1210.688 1963.452c3.736 2.547 6.917 5.553 9.973 8.714 3.029 3.175 5.799 6.568 8.394 10.075a123.33 123.33 0 017.101 10.959c1.122 1.863 2.076 3.817 3.121 5.719.977 1.938 1.892 3.905 2.839 5.854-1.004-1.924-1.973-3.863-3.003-5.77-1.098-1.871-2.104-3.793-3.276-5.619a122.76 122.76 0 00-7.377-10.711c-2.676-3.413-5.518-6.699-8.598-9.752-3.079-3.022-6.381-5.944-9.953-8.236l-.048-.031a.717.717 0 01-.214-1.004.748.748 0 011.023-.21l.018.012z" fill="#abf4e6"/></g></g></g><g><g><g><path d="M1231.222 2020.918c2.494-.683 4.87-.488 7.201-.019 2.317.503 4.489 1.445 6.499 2.594 2.041 1.117 3.837 2.579 5.583 4.058l2.459 2.391 2.274 2.551-2.405-2.423-2.569-2.243c-1.809-1.373-3.652-2.716-5.696-3.696-2.014-1.015-4.151-1.805-6.358-2.163-2.167-.346-4.534-.336-6.457.306l-.093.031a.743.743 0 01-.938-.453.722.722 0 01.462-.92c.012-.006.026-.01.038-.014z" fill="#abf4e6"/></g></g></g><g><g><g><path d="M1345.84 2023.021c2.74 3.155 4.483 6.781 5.756 10.569 1.246 3.791 1.838 7.75 1.969 11.699l-.025 2.964c.003.988-.161 1.967-.234 2.95-.114 1.973-.56 3.901-.899 5.839-.374 1.932-.996 3.81-1.481 5.714l-1.992 5.555 1.815-5.605c.424-1.915.984-3.8 1.296-5.731.277-1.937.659-3.859.71-5.815.041-.974.174-1.945.14-2.92l-.068-2.921c-.25-3.881-.954-7.734-2.28-11.378-1.32-3.609-3.213-7.148-5.761-9.903l-.055-.059a.716.716 0 01.051-1.024.748.748 0 011.043.05l.015.016z" fill="#abf4e6"/></g></g></g><g><g><g><path d="M1362.805 1991.623c.022-.106-.06-.198-.015-.136 0 .012.039.062.085.114.07.094.205.217.31.328l.753.702c.517.475 1.039.961 1.539 1.471a25.37 25.37 0 012.754 3.273c1.651 2.328 2.828 4.955 3.538 7.674 1.404 5.476.915 11.182-.377 16.546 1.055-5.415 1.267-11.099-.335-16.353-.808-2.61-2.052-5.078-3.724-7.229a24.287 24.287 0 00-2.766-3.009c-.5-.468-1.021-.913-1.555-1.362l-.813-.694c-.142-.136-.275-.241-.428-.416a1.731 1.731 0 01-.235-.297c-.07-.075-.191-.337-.21-.612 0-.4.331-.725.739-.725.409 0 .74.325.74.725z" fill="#abf4e6"/></g></g></g><g><g><g><path d="M1400.888 1958.018c-.291-.015-.951.116-1.434.347a7.992 7.992 0 00-1.509.88c-.498.323-.929.762-1.392 1.148-.417.445-.863.863-1.259 1.332-1.627 1.848-2.932 3.984-4.158 6.144a71.344 71.344 0 00-3.248 6.737c-1.002 2.29-1.845 4.642-2.718 6.986.756-2.381 1.482-4.776 2.374-7.119a71.42 71.42 0 012.935-6.936c1.135-2.248 2.349-4.482 3.954-6.499.39-.51.842-.98 1.263-1.472.48-.445.917-.934 1.461-1.329a9.207 9.207 0 011.711-1.106c.319-.149.64-.295 1-.39.37-.105.682-.183 1.229-.161a.727.727 0 01.704.752.73.73 0 01-.767.691h-.008l-.138-.005z" fill="#abf4e6"/></g></g></g><g><g><g><path d="M1367.903 2043.51a.875.875 0 01-.009.688c-.087.167-.065.103-.104.165-.046.058-.111.141-.147.174l-.224.217-.419.37-.823.701-1.622 1.393a80.854 80.854 0 00-3.138 2.886 68.419 68.419 0 00-5.733 6.291c-3.544 4.427-6.472 9.374-8.367 14.734 1.659-5.434 4.387-10.544 7.775-15.169a69.197 69.197 0 015.527-6.612 82.277 82.277 0 013.053-3.058l1.575-1.474.782-.725.371-.356.155-.163c.028-.03.013-.022.024-.032-.014.026.045-.069-.028.057a.592.592 0 00.026.56c-.182-.359-.032-.794.333-.972s.812-.034.993.325z" fill="#abf4e6"/></g></g></g><g><g><g><path d="M1385.905 1941.425c.363 3.604.601 7.194.777 10.797.174 3.6.26 7.204.221 10.808-.032 3.602-.165 7.208-.543 10.793-.381 3.578-.903 7.166-2.025 10.598 1.003-3.465 1.398-7.054 1.656-10.628.254-3.579.264-7.172.173-10.757-.084-3.587-.292-7.17-.588-10.745-.297-3.572-.659-7.151-1.138-10.689l-.001-.009a.727.727 0 01.635-.814.736.736 0 01.83.624l.003.022z" fill="#abf4e6"/></g></g></g><g><g><g><path d="M1393.821 1887.191c-.007-.21-.102-.205-.024-.149.045.047.139.123.244.195l.695.463c.489.323.984.672 1.443 1.063a11.53 11.53 0 012.354 2.702c1.266 2.018 1.925 4.297 2.239 6.562.334 2.272.316 4.56.169 6.822-.157 2.263-.48 4.507-.892 6.729.29-2.241.49-4.493.523-6.744.024-2.247-.084-4.503-.529-6.688-.422-2.181-1.181-4.308-2.436-6.083a10.407 10.407 0 00-2.244-2.316 13.541 13.541 0 00-1.37-.899l-.759-.45a3.15 3.15 0 01-.438-.32c-.137-.129-.41-.365-.453-.859a.732.732 0 01.726-.738.73.73 0 01.752.71z" fill="#abf4e6"/></g></g></g><g><g><g><g><path d="M1349.653 2224.409a345.62 345.62 0 01-.872 9.615c-.074.769-.163 1.566-.251 2.393-.089.928-.192 1.885-.31 2.871a598.721 598.721 0 01-.739 6.12c-.207 1.61-.428 3.263-.665 4.96a471.071 471.071 0 01-1.316 8.774c-.103.624-.207 1.262-.325 1.9-.104.609-.207 1.233-.31 1.856-.104.609-.207 1.233-.325 1.871a217.778 217.778 0 01-.902 4.902c-.177.913-.355 1.827-.532 2.755l-.665 3.22c-.162.754-.325 1.522-.488 2.277-.325 1.523-.68 3.06-1.035 4.583-.177.768-.355 1.538-.547 2.306-.429 1.755-.872 3.51-1.33 5.264-.355 1.291-.71 2.596-1.064 3.872v.029c-.384 1.305-.754 2.581-1.138 3.872-.074.232-.148.449-.207.681-.458 1.479-.931 2.93-1.404 4.38-.251.74-.503 1.479-.754 2.205-.503 1.45-1.02 2.886-1.552 4.307-.547 1.406-1.094 2.813-1.671 4.191a86.405 86.405 0 01-.857 2.03 126.47 126.47 0 01-2.616 5.627c-.37.725-.739 1.436-1.109 2.146-.325.609-.665 1.218-1.005 1.827a42.147 42.147 0 01-1.02 1.769c-.34.594-.695 1.16-1.05 1.726s-.71 1.117-1.079 1.667h-52.626c76.81-12.936 54.74-110.147 54.74-110.147h20.947c2.333.003 4.166 1.888 4.077 4.151z" fill="#b8ccff"/></g></g></g></g></g></g></g></g></svg>